<svg xmlns="http://www.w3.org/2000/svg" width="460pt" height="500" viewBox="0 0 460 375"><g fill="#dadbdd"><path d="M0 0h9.34L8.13.02 7.2.01c-.02 10.68.51 21.36.35 32.04-.03 2.6-.03 5.22.44 7.79 1.38 7.26-.24 14.71 1.17 21.96.72 4.69.14 9.46.8 14.16.95 6.66.18 13.42 1.06 20.08.85 6.28.15 12.66.99 18.94.9 6.65.11 13.41 1.08 20.06 1.08 7.99-.31 16.12 1.23 24.06.33 9.08 1.37 18.12 1.4 27.22 1.25 7.86.55 15.83 1.04 23.72 1.27 5.89.62 11.92.96 17.88 1.84 6.15-.22 12.78 1.99 18.89-2.52.42-5.09.31-7.63.24-1.94-14.26-1.48-28.74-3.09-43.04.28-9.71-1.46-19.32-1.16-29.03-2.19-37.97-3.59-76-6-113.94C1.64 43.94.32 26.87 0 9.77V0ZM302.38 9.5c2.92-.22 5.81.36 8.7.67 28.63 3.65 57.45 8.52 84.34 19.4 7.27 3 15.16 6.88 18.81 14.26.87 1.8 1.59 5.86-1.32 5.87-5.08.21-10-1.55-15.08-1.65 12.41 5.02 24.63 10.52 36.52 16.66 3.19 1.43 4.6 6.31 2.5 9.08-7.85-2.4-15.19-6.49-23.35-7.93 5.15 3.42 11.03 5.44 16.46 8.35 5.57 2.97 11.29 5.73 16.57 9.21 1.45 1.1 3.54 2.36 3.12 4.5-.47 4.88-2.22 9.67-5.33 13.49-6.63-4.11-13.37-8.27-20.83-10.72 3.86 3.5 8.46 6.03 12.39 9.45 7.07 5.93 13.65 12.64 18.47 20.56.95 1.77 2.53 4.55.32 6.05-8.94 7.4-19.08 13.2-28.17 20.41 5.96-1.5 11.33-5.21 17.58-5.49 2.87 1.93 4.55 5.08 6.23 8.01 3.74 6.98 7.17 14.16 9.69 21.68v1.54c-16.44 11.72-32.59 23.84-49.15 35.37-3.93-9.39-6.98-19.2-12.02-28.1-2.01-3.48-4.43-7.09-8.27-8.71-9.45-4.18-19.35-7.22-28.92-11.09-1.02-8.14-3.16-16.21-2.8-24.47 0-2.22 1.48-4.03 2.22-6.03 1.26-2.59.93-5.54 1.05-8.32 1.64-1.55 3.77-3.03 4.11-5.44.63-2.78-.32-5.55-1.04-8.21-2.45.76-5 1.2-7.57 1 4.82-1.38 9.84-3.33 12.65-7.77 3.87-4.66 4.42-11.27 1.72-16.63a182.27 182.27 0 0 1-3.12 3.1c.8-2.73 2.93-5.61 1.43-8.49-1.52-3.39-4.72-5.61-7.22-8.24-1.84-1.91-4.69-1.03-7-.96-4.99-4.96-8.41-11.19-11.87-17.24-2.99-5.17-5.1-11.08-9.77-15.06-4-3.71-9.26-5.52-14.49-6.69.16 1.09.32 2.19.49 3.29-2.65-5.4-8.48-7.3-13.87-8.7l-1.6-.84c-3.05-.44-6.14-.39-9.21-.45 1.46-5.14 2.68-10.86 6.63-14.72ZM15.31 14.99c.51.71 1.02 1.41 1.54 2.12 2.68 1.2 5.02 2.98 7.48 4.55 1.26.76 2.51 1.54 3.73 2.37 3.48 2.21 6.94 4.46 10.43 6.66l.13.51c1.22.43 2.42.97 3.47 1.74 5.76 3.98 11.84 7.46 17.6 11.43 1.27.78 2.53 1.57 3.8 2.34l.13.48c4.89 2.28 9.14 5.68 13.7 8.53.56.26 1.68.77 2.23 1.02.04 4.85.08 9.7-.06 14.54.38.29 1.14.86 1.51 1.15-1.68.21-3.65-.22-5.02 1.02-.07-5.65-.7-11.27-.81-16.92-16.44-10.84-33.3-21.05-49.86-31.71-3.4-2.31-7.28-4.01-10.08-7.1l.08-2.73ZM145.21 17.25c2.53-1.01 5.06-2.47 7.86-2.36 4.77 1.65 8.44 5.63 10.63 10.1-7.55 4.22-15.59 7.8-22.32 13.33 4.77-1.1 9.14-3.31 13.65-5.12 13.63-5.34 27.67-9.71 42.06-12.47 3.12-.45 6.4-1.16 9.49-.28 3.94 2.74 4.78 7.99 4.73 12.46-13.41 3.13-26.18 8.37-38.88 13.59-4.21 1.75-8.51 3.34-12.56 5.46 4.51-.35 8.69-2.13 13-3.31 21.36-6.09 43.06-11.02 64.9-15.05 4.54-.68 9.68-2.42 13.72.76-6.44 1.79-11.58 8.07-10.58 14.96 1.29-2.11 2.56-4.24 3.94-6.3-1.57 4.48-4.21 9-3.18 13.92.97 6.23 6.09 10.71 11.23 13.8-1.36 2.7-2.96 5.31-3.78 8.23-.32 2.38 1.54 5.95-1.65 6.96-1.34-1.04-1.72-2.75-2.4-4.2a25.95 25.95 0 0 0-3.69 3.72c-1.66 1.21-4.24 2.07-4.34 4.49-.38 3.34-1.3 6.67-1.03 10.05.52 2.61 2.96 4.08 4.95 5.53-.7 2.42-1.87 4.98-1 7.52.72 2.38 3.14 3.51 4.98 4.9.4 2.38.37 5.13 2.22 6.95 2.16 2.4 5.59 2.65 8.55 3.24 1.5 3.73 4.96 5.87 8.88 6.26 2.08 3.46 4.32 6.81 6.6 10.14-3.8 2.5-7.81 4.65-11.68 7.01-2.91 1.84-5.79 4.76-9.56 3.99-4.76-.69-9.67-.64-14.22 1.1-4.81 1.38-7.4 6.33-12.12 7.88-5.86 2.08-12.13 2.56-18.13 4.13-6.45 1.37-12.8 3.62-19.43 3.89-4.47-.64-8.62-2.61-13.04-3.46-2.92-.7-5.95-.73-8.87-1.41-1.75-.75-3.28-1.93-5.04-2.64-2.98-.23-6.26 1.76-8.97-.16-3.53-2.35-6.03-5.98-9.77-8.06-8.43-4.67-17.47-8.25-25.48-13.66-2.01-1.43-4.4-2.11-6.83-2.34-.44-.42-1.33-1.27-1.78-1.69 5.62-3.59 12.03-5.61 17.81-8.9-7.63 1.09-15.27 2.1-22.85 3.48-2.93-3.41-6.15-6.72-8.06-10.84-1.83-4.13.71-8.39 2.03-12.27 4.07 1.6 8.14 3.3 12.46 4.08-2.57-3.94-6.78-6.2-10.72-8.52 1.32-5.71.99-11.71-1.06-17.21 5.78-3.3 12.23-5.1 18.25-7.87-6.65.72-12.86 3.47-19.51 4.21-1.12-3.77-2.47-7.83-6.53-9.32-.69.27-2.09.82-2.78 1.1-.03-.7-.08-2.08-.11-2.77 9.85-4.12 19.7-8.28 29.37-12.8 4.69-2.21 9.59-4 14.01-6.75-5.95.85-11.53 3.19-17.3 4.74-8.48 2.42-16.87 5.18-25.49 7.07-.63-5.33.93-11.1-1.38-16.12-.94-.83-1.96-1.58-2.97-2.32 4.75-3.02 9.9-5.3 14.93-7.79 16.16-7.92 32.44-15.63 48.84-23.06Z"/><path d="M251.28 56.26c.52.51.52.51 0 0ZM40.26 72.06c.56-2.42.43-5.45 3-6.76.4 4.92-.75 9.86.16 14.75.2-2.13.36-4.27.52-6.4.48.8.96 1.6 1.44 2.41 1.11.38 2.21.78 3.32 1.17.32-.02.96-.08 1.29-.1.09 1.11.18 2.23.28 3.36.35.02 1.05.06 1.4.09.55.8 1.1 1.6 1.66 2.4l1.03 1.42-.4 4.33a17.851 17.851 0 0 1-3.58-3.98c-1.25-.92-2.51-1.82-3.77-2.71-.93.62-1.85 1.25-2.78 1.88-.28-.33-.86-.99-1.14-1.32-.87.16-1.73.31-2.6.47l-.52-2.98c-2.37 1.45-4.2 3.61-6.54 5.09-3.76-.16-3.49-5.02-2.7-7.65 1.25-3.61 1.79-8.32 5.58-10.21-2.25 5.12-4.04 10.6-3.83 16.27 4.81-2.28 1.67-8.31 3.18-12.29.31-.11.93-.32 1.24-.43.71 2.28.8 4.68.96 7.04.9-1.96 1.85-3.91 2.8-5.85ZM280.05 128.99c5.47-.39 10.73-2.32 16.26-1.99-1.21 1.14-2.45 2.25-3.71 3.34-1.2-.66-2.35-1.98-3.85-1.54-3.83.75-7.67 1.41-11.57 1.65l-.59.04c.84-1.12 2.09-1.5 3.46-1.5ZM80.07 146.9c.56 1.15 1.09 2.32 1.61 3.5.98 1.4 1.95 2.81 2.94 4.21-.72 2.4-1.2 4.88-1.07 7.4 2.05 2.49.61 6.08 1.08 9.03 2.03 6.05.33 12.75 1.05 19.04 1.52 7.04.72 14.3.85 21.44-.81-.03-2.41-.1-3.22-.13l.2 1.05c-1.71.42-3.42.88-5.16 1.15l.1.78c-1.52.42-3.02.9-4.54 1.34-.51.29-1.55.86-2.06 1.14-1.67.63-3.35 1.26-4.98 2-1.08.54-2.24.78-3.49.7l.12 1.18c-.41-.08-1.23-.23-1.64-.3-.83 1.02-1.96 1.4-3.39 1.13l.06 1.12-1.63-.2c-1.51 1.38-3.57 1.85-5.54 2.13l.07.74c-1.53.42-3.05.91-4.56 1.41-1.73.89-3.54 1.66-5.49 1.86l.1.78c-1.66.4-3.3.87-4.97 1.24l-.04 1.03c-.4-.05-1.22-.17-1.62-.23-.8.74-1.74 1.21-2.83 1.4-.56.21-1.66.65-2.22.86-1.35.7-2.72 1.37-4.08 2.05.16-.34.47-1.01.63-1.35 4.76-2.93 10.18-4.52 15.25-6.82 14.09-5.7 28-11.89 42.22-17.27-1.31-9.05-.64-18.22-1.64-27.29-.58-12.05-1.29-24.09-2.11-36.12Z"/><path d="M89.59 168.77c6.99 5.68 14.4 10.83 22.05 15.57 9.37 5.8 16.52 14.81 26.72 19.35 9.37 4.32 18.79 8.56 28.25 12.71 8.9 3.99 18.88 3.79 28.42 4.22 10.66-.23 21.31-.78 31.94-1.49 6.75-.28 13.52-.26 20.23-1.13-1.39 1.34-3.38 2.78-1.87 4.89-.54.49-1.61 1.49-2.15 1.99.39.51 1.17 1.54 1.57 2.05-1.15 1.63-1.31 3.43.58 4.55-.6 1.66-.65 3.49 1.42 4.02-.11 2.03 1 3.44 2.9 4.07l-.96 1.56c1.01.78 2.04 1.54 3.08 2.3.2 1.3.4 2.61.63 3.92-.34.43-1.01 1.29-1.34 1.72l1.44 2c-1.51 1.19-1.73 2.74-.91 4.41-1.57 1.04-1.54 2.52-.75 4.08-1.51 1.02-1.87 2.42-.97 4.01-1.53 1.1-2.11 2.54-.93 4.22-.74.45-1.49.9-2.22 1.36.33.79.68 1.58 1.03 2.37-4.61 2.06-4.64 7.71-5.31 11.99-.45.38-1.33 1.15-1.78 1.53-23.15-2.64-46.33-5.09-69.52-7.44-32.15 22.98-64.34 45.9-96.53 68.81-8.58-1.87-18.01.08-26.04-4.06-3.64-3.34-4.43-8.76-5.25-13.41-.45-3.37-.16-9.36 4.62-8.94 19.94-1.26 39.65-5.85 58.36-12.78-9.13.48-18.2 1.86-27.35 2-15.19.3-30.47.54-45.54-1.69-6.5-.98-13.13-1.98-19.14-4.73-3.89-1.56-4.25-6.26-5.42-9.72-1.79-8.11-3.99-16.41-3.42-24.77 3.96-3.36 8.95-5.13 13.53-7.47 9.23-4.59 18.77-8.5 28.21-12.62 4.8-2.07 9.81-3.7 14.36-6.31-9.45 1.37-18.75 4.85-28.44 3.82-1.56-.03-2.53-1.37-3.63-2.27 20.77-8.86 41.64-17.5 62.44-26.29-1.03-16.12-1.5-32.27-2.31-48.4ZM301.88 178.77c-1.27 1.54-3.21-1.48-1.09-1.66.27.42.82 1.24 1.09 1.66ZM421.85 204.84c8.04-2.92 15.87-6.62 24.33-8.17-.38 4.23-.44 9.44-4.15 12.27-6.19 4.07-13.5 6.07-19.62 10.27 4.53-.46 8.87-2.31 13.46-2.27 2.18 2.47 3.21 5.87 3.09 9.14-.09 1.44-.58 3.15-2.1 3.66-6.72 3.16-14.35 4.03-20.78 7.82.25-9.18-1.88-18.24-4.43-26.99 2.35-3.41 6.64-4.18 10.2-5.73ZM251.34 217.15c1.68-.54 2.22 0 1.62 1.62-1.65.53-2.19-.01-1.62-1.62ZM249.48 220.05c1.42-.54 1.9-.09 1.42 1.36-1.41.5-1.89.05-1.42-1.36ZM254.28 258.75c-.36-1.74.26-5.07 2.61-3.19-1.06 1.85-1.21 4-1.56 6.07.53-.05 1.59-.14 2.12-.18 6.11 7.48 10.74 16.01 15.9 24.14-5.46-.2-10.87.56-16.29 1.05-3.71-1.88-5.85-6.54-5.03-10.61l-1.23-.11.45-1.02c-1.98-.87-.97-2.35.3-3.26.39-1.74-.62-4.57 2.39-3.91-.22.74-.66 2.22-.89 2.96 1.24-.52 1.92-1.41 2.05-2.66-.64-.35-1.9-1.05-2.53-1.4.67-2.61 1.26-5.23 1.71-7.88m.76 4.33c-.87.52-1.24 2.79.04 2.99 1.24-.37 1.47-2.94-.04-2.99m-2.29 11.24c.23-.54.7-1.63.93-2.17-1.16-.39-2.72 1.97-.93 2.17ZM241.18 294.39c-.33-1.76.25-2.45 1.76-2.07.33 1.73-.26 2.42-1.76 2.07ZM236.32 300.89c-.49-1.58.1-2.16 1.76-1.75.47 1.6-.12 2.18-1.76 1.75Z"/></g><g fill="#fff"><path d="M9.34 0H460v171.36c-2.52-7.52-5.95-14.7-9.69-21.68-1.68-2.93-3.36-6.08-6.23-8.01-6.25.28-11.62 3.99-17.58 5.49 9.09-7.21 19.23-13.01 28.17-20.41 2.21-1.5.63-4.28-.32-6.05-4.82-7.92-11.4-14.63-18.47-20.56-3.93-3.42-8.53-5.95-12.39-9.45 7.46 2.45 14.2 6.61 20.83 10.72 3.11-3.82 4.86-8.61 5.33-13.49.42-2.14-1.67-3.4-3.12-4.5-5.28-3.48-11-6.24-16.57-9.21-5.43-2.91-11.31-4.93-16.46-8.35 8.16 1.44 15.5 5.53 23.35 7.93 2.1-2.77.69-7.65-2.5-9.08-11.89-6.14-24.11-11.64-36.52-16.66 5.08.1 10 1.86 15.08 1.65 2.91-.01 2.19-4.07 1.32-5.87-3.65-7.38-11.54-11.26-18.81-14.26-26.89-10.88-55.71-15.75-84.34-19.4-2.89-.31-5.78-.89-8.7-.67-3.95 3.86-5.17 9.58-6.63 14.72 3.07.06 6.16.01 9.21.45l1.6.84c-5.92-.76-11.82.33-17.71.85.7.42 2.1 1.25 2.8 1.67-4.47-.13-9.04-.15-13.33 1.29a35.494 35.494 0 0 1-10.2 1.89c1.82 1.1 3.62 2.24 5.34 3.49-5.17-2.18-10.97-4.93-16.52-2.27 3.19.86 6.41 1.79 9.32 3.42-4.88-.91-9.77-2.5-14.77-1.49-4.04-3.18-9.18-1.44-13.72-.76-21.84 4.03-43.54 8.96-64.9 15.05-4.31 1.18-8.49 2.96-13 3.31 4.05-2.12 8.35-3.71 12.56-5.46 12.7-5.22 25.47-10.46 38.88-13.59.05-4.47-.79-9.72-4.73-12.46-3.09-.88-6.37-.17-9.49.28-14.39 2.76-28.43 7.13-42.06 12.47-4.51 1.81-8.88 4.02-13.65 5.12 6.73-5.53 14.77-9.11 22.32-13.33-2.19-4.47-5.86-8.45-10.63-10.1-2.8-.11-5.33 1.35-7.86 2.36-16.4 7.43-32.68 15.14-48.84 23.06-5.03 2.49-10.18 4.77-14.93 7.79C63.8 36.21 46.17 24.29 28.38 12.64 21.69 8.33 15.08 3.9 8.13.02L9.34 0ZM0 9.77c.32 17.1 1.64 34.17 1.83 51.27 2.41 37.94 3.81 75.97 6 113.94-.3 9.71 1.44 19.32 1.16 29.03 1.61 14.3 1.15 28.78 3.09 43.04 2.54.07 5.11.18 7.63-.24 3.38-.71 6.59-1.98 9.75-3.35 1.1.9 2.07 2.24 3.63 2.27 9.69 1.03 18.99-2.45 28.44-3.82-4.55 2.61-9.56 4.24-14.36 6.31-9.44 4.12-18.98 8.03-28.21 12.62-4.58 2.34-9.57 4.11-13.53 7.47-.57 8.36 1.63 16.66 3.42 24.77 1.17 3.46 1.53 8.16 5.42 9.72 6.01 2.75 12.64 3.75 19.14 4.73 15.07 2.23 30.35 1.99 45.54 1.69 9.15-.14 18.22-1.52 27.35-2-18.71 6.93-38.42 11.52-58.36 12.78-4.78-.42-5.07 5.57-4.62 8.94.82 4.65 1.61 10.07 5.25 13.41 8.03 4.14 17.46 2.19 26.04 4.06-7.18 5.15-14.4 10.25-21.6 15.39 1.82.18 3.63.36 5.45.55 38.19-26.51 76.46-52.92 114.61-79.49 20.35 1.84 40.66 4.24 61 6.22 2.09.16 4.16.59 6.18 1.19-.82.29-2.45.86-3.26 1.15l-.16 2.34c-1.53.92-3.01 2.16-2.36 4.16h-2.7c.06.81.16 2.41.21 3.21-.55.28-1.67.83-2.22 1.11.16.71.5 2.12.67 2.83-1.42 1.27-1.99 3.07-.36 4.48-.4.89-1.05 1.73-1.04 2.76.83.43 1.66.87 2.49 1.33-.41.62-1.23 1.87-1.64 2.49.65.39 1.94 1.18 2.58 1.58-.25 2.05.61 3.75 2.92 3.72.02.58.07 1.73.09 2.3-3.2 4.77-6.3 9.6-9.53 14.35 1.52-1.59 3.03-3.21 4.83-4.49 2.5-4.46 5.32-8.75 8.66-12.63-1.3-1.13-2.72-2.29-2.31-4.24 1.39 1.43 2.77 2.9 4.19 4.33-2.44 8.92-8.94 16.23-16.41 21.43.37-1.15 1.09-3.45 1.46-4.6-4.36 5.88-8 12.66-8.36 20.1.34 3.48.57 7.07 1.6 10.43 2.31 4.42 7.86 5.17 12.34 5.5 17.76.22 35.53.63 53.29 1.09H0V9.77Z"/><path d="M15.23 17.72c2.8 3.09 6.68 4.79 10.08 7.1 16.56 10.66 33.42 20.87 49.86 31.71.11 5.65.74 11.27.81 16.92-3.69 1.61-6.42 4.71-10.09 6.35-2.19 1.06-3.3 3.33-4.3 5.41-2.7-.94-5.56-1.3-8.26-2.23-.56-.8-1.11-1.6-1.66-2.4-.35-.03-1.05-.07-1.4-.09-.1-1.13-.19-2.25-.28-3.36-.33.02-.97.08-1.29.1-1.11-.39-2.21-.79-3.32-1.17-.48-.81-.96-1.61-1.44-2.41-.16 2.13-.32 4.27-.52 6.4-.91-4.89.24-9.83-.16-14.75-2.57 1.31-2.44 4.34-3 6.76-.95 1.94-1.9 3.89-2.8 5.85-.16-2.36-.25-4.76-.96-7.04-.31.11-.93.32-1.24.43-1.51 3.98 1.63 10.01-3.18 12.29-.21-5.67 1.58-11.15 3.83-16.27-3.79 1.89-4.33 6.6-5.58 10.21-.79 2.63-1.06 7.49 2.7 7.65 2.34-1.48 4.17-3.64 6.54-5.09l.52 2.98c.87-.16 1.73-.31 2.6-.47.28.33.86.99 1.14 1.32.93-.63 1.85-1.26 2.78-1.88 1.26.89 2.52 1.79 3.77 2.71.99 1.5 2.19 2.84 3.58 3.98l.4-4.33c2.19 2.24 4.59 4.26 7.29 5.89-3.87 1.73-2.1 6.26-1.12 9.23 1.51 7.71 2.43 15.57 2.42 23.44-.02 5.21 5.62 7.16 8.77 10.28 3.36 4.16 5.52 9.14 8.35 13.66.82 12.03 1.53 24.07 2.11 36.12 1 9.07.33 18.24 1.64 27.29-14.22 5.38-28.13 11.57-42.22 17.27-5.07 2.3-10.49 3.89-15.25 6.82-1.36-12.38-1.35-24.86-2.3-37.27-2.58-51.71-5.36-103.41-8.03-155.11-.03-8.11-1.54-16.19-.79-24.3ZM301 32.4c-.15-.47-.44-1.42-.59-1.89 3.08 1.08 6.32 1.61 9.39 2.75.45.91.9 1.83 1.36 2.75-1.86-.51-3.73-.99-5.62-1.31.89 1.38 1.76 2.77 2.63 4.17-1.46-.85-2.92-1.7-4.37-2.55.17.96.52 2.86.69 3.81-.64-.22-1.93-.67-2.57-.89-.63.83-1.24 1.67-1.82 2.53-1.1-.64-2.19-1.29-3.26-1.95-1.5.17-2.99.35-4.47.52-.65.81-1.31 1.62-1.97 2.43a81.7 81.7 0 0 0-2.46-2.79c-1.18 1.11-1.69 2.68-2.3 4.13-1.83-1.13-3.7-2.2-5.5-3.37-1.4 1.83-1.41 4.36-3.08 6.03-1.22-1.33-2.41-2.69-3.64-4 .07.62.22 1.86.3 2.48-1.79.53-2.46 2.33-3.45 3.72-1.02-1.02-1.84-2.22-2.74-3.35-.65 1.34-1.46 2.59-2.35 3.77-.57-4.94-4.37-8.27-8.52-10.45 2.39-.19 4.6.65 6.67 1.75-.05-.38-.13-1.14-.18-1.52.74.4 2.22 1.21 2.96 1.61-.79-1.36-1.64-2.69-2.46-4.02 2.97.89 5.84 2.06 8.68 3.28-1.14-1.79-2.4-3.49-3.65-5.2 3.06.89 6.12 1.82 8.96 3.27.33-.42.97-1.24 1.29-1.65-.35-.4-1.05-1.2-1.4-1.59 5.88 1.35 11.68-.66 17.56.02-.67-.51-2.01-1.51-2.68-2.02 1.86.22 3.85.46 5.49-.67l-1.82-1.07c1.64.44 3.26.87 4.92 1.27m-2.88 1.83c.63.11 1.9.32 2.53.42-.15-1.22-.96-1.84-2.42-1.85-.03.36-.08 1.07-.11 1.43Z"/><path d="M319.41 42.8c.87-2.96 1.78-5.9 2.92-8.76 1.68.8 3.22 1.87 4.54 3.19-3.51 2.13-3.61 6.84-6.84 9.23.07.55.22 1.66.29 2.21-.33.24-1 .71-1.33.95 1.9.81 3.81 1.66 5.69 2.53-.33 4.27 3.44 7.42 2.34 11.79-1.31-1.28-2.58-2.59-3.89-3.85 1.43 2.81 3.35 5.57 2.67 8.92-2.94-4.15-4.93-8.97-6.83-13.62-1.57-1.66-2.85-3.54-3.87-5.58.7-1.55 1.46-3.07 2.52-4.42-2.32-.58-3.26 2.36-4.75 3.59-.67 5.98 4.63 9.87 7.97 14.03-.78-.25-2.35-.77-3.13-1.03 1.52 2.83 3.74 5.21 5.24 8.05-1.41-1.05-2.75-2.18-4.19-3.19 2.1 4.24 6.15 6.87 9.05 10.45 2.34 6.94-1.96 13.78-1.15 20.8-.04 4.2 1.36 8.97 5.68 10.56-1.7.72-3.69 1.13-4.9 2.63.75 2.82 4.07 3.17 6.45 3.67-3.84 2-5.55 6.13-7.17 9.89-3.3 1.69-3.49 5.45-1.85 8.49-2.83 2.54-5.72 5.04-8.83 7.25-5.49-2.47-10.89 1.04-15.18 4.21-2.75 1.89-4.69 4.63-6.96 7.02-6.79 3-14.78-.03-19.53-5.31-4.73-5.93-7.72-13.02-11.49-19.56-3.5-5.6-3.72-12.49-2.98-18.86.31-2.41.2-4.84-.34-7.2 1.79.78 3.5 1.95 5.49 2.15 1.95-.29 3.89-.69 5.84-1.04.82-1.03 1.66-2.04 2.55-3.02 2.51 1.44 2.71 4.27 3.02 6.8h.44c.12-4.18-.9-8.67-4.07-11.61-4.01-3.78-8.66-7.26-14.04-8.71-.7.16-2.1.5-2.8.67.04-5 .97-9.92 1.36-14.88 5.76.07 11.2-4.38 10.98-10.42-.6.49-1.8 1.45-2.4 1.94.52-1.08 1.06-2.15 1.59-3.23 4.57-.81 5.75-5.67 6.02-9.61.96 3.02.32 6.09-1.48 8.66 1.68-.22 4.05.51 5.26-1.13.94-1.51 1.61-3.18 2.41-4.76.06.89.19 2.69.26 3.58.87-.93 1.42-2.15 1.66-3.66.11 1.46.08 2.93.07 4.4-1.25.2-2.52.31-3.66.87.91.71 1.82 1.44 2.71 2.2 7.49.27 11.75-6.74 18.18-9.2 2.69-1.29 5.99-1.48 8.08-3.82 0-2.42 0-4.85.32-7.26 2.03 3.03 1.32 6.59-.4 9.57 1.99-.21 5.29-.63 5.12-3.33.98-2.54-2.98-4.85-.86-6.96.35.25 1.04.75 1.39 1.01l-.64 3.07 2.03-2.33c.02 1.01.05 3.02.07 4.03 1.77-.71 3.58-1.35 5.35-2.06m-30.34 42.15c-1.46 1.87-3.32 3.8-3.15 6.36 4.94-2.2 7.71-7.65 12.97-9.32 4.18.45 8.27 1.53 12.3 2.71-3.4-3.01-7.66-5.19-12.2-5.74-4.04.2-7.45 2.97-9.92 5.99m-2.37 12.08c1.36-.56 2.71-1.16 4.07-1.72-.57 1.2-1.11 2.42-1.64 3.64 1.32-1.3 2.62-2.64 4.01-3.88.94 1.28 1.83 2.6 2.83 3.84 1.76.17 3.54.39 5.16 1.15 2.56-.04 5.88-1.16 6.32-4.07l.59.18c.12-1.8 1.65-2.3 3.1-2.83-1.84-.42-3.65-1.22-5.57-.99-.06-2.17-1.59-.65-2.61-.27-.05-.39-.13-1.18-.18-1.57-3.4.9-7.25 1.04-10.03 3.44-.31-.23-.61-.45-.9-.68 1.23-.54 2.45-1.11 3.65-1.73.62-.51 1.87-1.53 2.49-2.04-4.71.66-8.5 3.86-11.29 7.53m2.63 16.22c.42.73 1.24 2.17 1.66 2.89-.66 1.41-1.35 2.8-2.01 4.21 1.36-.76 3.21-1.17 3.67-2.89-.1-1.57-1.29-2.75-2.07-4.02-.31-.05-.94-.14-1.25-.19m-15.49 6.61c-.29.57-.89 1.71-1.18 2.28 2.71 1.85 5.8.13 8.6-.54-1.68-.58-3.51-.82-4.98-1.86-1.56-1.27-1.18-3.47-1.72-5.19-.69 1.69-.88 3.5-.72 5.31m7.1-1.48c2.4.96 5.06 1.32 7.56.45-2.12-2.05-5.07-.92-7.56-.45m-.88 7.6c-3.56-.51-6.29 2.5-9.84 2.33 1.4.72 2.82 1.42 4.24 2.12.46 3.01 1.41 6.24 3.93 8.17 3.05 2.3 7.17 1.49 10.71 1.29 7.2-1.98 10.9-9.1 13.7-15.41-4.93-.58-9.91-.63-14.86-.44-2.63.67-5.05 2.31-7.88 1.94ZM332.4 41.09c5.77 3.74 8.47 10.35 11.85 16.04-6.37-3.29-8.09-10.53-11.85-16.04Z"/><path d="M255.42 46.22c3.09 1.61 7.03 3.78 7 7.78.39-.56 1.19-1.69 1.58-2.25.12 2.78-.24 5.54-.63 8.29.86-1.71 1.59-3.47 2.3-5.25 1.11 3.42-.96 6.62-2.81 9.32.62-.02 1.86-.04 2.48-.05-1.71 1.89-3.63 3.73-6.23 4.23l1.92-2.36c-2.03.02-4.05-.04-6.07-.17 1.64-.59 3.29-1.15 4.93-1.74-4.07-.14-8.37-1.57-10.72-5.09-2.26-2.97-2.5-7.05-.82-10.35.15 2.78.59 5.62 2.55 7.75.08-1.75.16-3.5.26-5.25.89 2.28 2.04 5.14 4.83 5.53 2.08-.32 3.6-2.47 2.96-4.53-.69-2.21-2.24-3.99-3.53-5.86m-4.14 10.04c.52.51.52.51 0 0ZM84.41 50.42c2.31 5.02.75 10.79 1.38 16.12 8.62-1.89 17.01-4.65 25.49-7.07 5.77-1.55 11.35-3.89 17.3-4.74-4.42 2.75-9.32 4.54-14.01 6.75-9.67 4.52-19.52 8.68-29.37 12.8-.13-7.96-.63-15.9-.79-23.86ZM339.11 65.13c2.82 1.82 4.95 4.44 7.09 6.97l-.17-2.48.48.03c1.52 2.38 3.55 4.36 5.15 6.68 1.06 2.05.97 4.42 1.04 6.66 1.59-3.01 2.04-6.45 3.32-9.59 1.02-.38 3.04-1.14 4.05-1.51-.31.66-.94 1.99-1.25 2.65 4.95-3.1 10.29 2.54 10.2 7.53-1.24-1.22-2.03-3.51-4.15-3.13-2.72 4.11-4.09 10.78-9.98 11.28 3.66 4.41 2.73 10.22 1.62 15.36 2.03-1.37 4.59-1.9 6.32-3.73 1.71-1.65 2.8-3.8 3.91-5.87-2.37.21-4.93.47-6.94-1.04 3.31-1 5.31-3.78 7.33-6.37-.44 1.63-1 3.23-1.43 4.86 1.28-1.2 2.27-2.65 3.23-4.11.07.75.22 2.23.29 2.97.89-1.51 1.73-3.05 2.59-4.58.3 4.11.8 8.69-2.02 12.11-2.88 4.61-8.58 5.65-13.58 6.04-1.03 4.18-1.38 8.87-4.07 12.38 1.4-7.06 4.31-13.88 4.33-21.18-.18-4-2.9-7.26-5.53-10.02-3.95-3.91-8.98-7.66-14.86-7.12-1.8-2.24-3.48-4.57-4.99-7.01 2.2 1.41 4.17 3.49 6.89 3.8 1.8-.04 3.74-.58 4.91-2.04.95-3.71-2.1-6.58-3.78-9.54ZM66.76 83.78c3.24-4.82 7.96-9.54 14.18-9.49 1.79.94 2.14 2.94 2.2 4.79-2.68 1.68-6.11 2.3-8.05 4.99-2.43 2.26-5.64 6-9.26 3.87.21-1.4-.07-3.01.93-4.16ZM86.22 78.23c2.13-1.03 4.24.96 4.93 2.85 2.93 7.6 5.23 15.8 3.93 24.02-2.65-1.65-5.3-3.28-8.11-4.63 1.47-.64 2.91-1.37 4.25-2.26-3.1.88-6.18.58-8.57-1.74 2.38-2.11 5.56-2.67 8.35-4.02-.78-.2-2.35-.61-3.14-.82.27-2.71 2.88-4.39 3.43-7.04-4.13 2.71-7.15 7.24-12.2 8.44-1.87.81-3.47-.7-4.92-1.64 1.71-1.74 3.86-2.98 5.49-4.8 2.14-2.81 3.65-6.22 6.56-8.36ZM94.62 85.27c6.65-.74 12.86-3.49 19.51-4.21-6.02 2.77-12.47 4.57-18.25 7.87l-1.26-3.66ZM65.13 82.8c.67-.67.67-.67 0 0Z"/><path d="m64.54 82.71.59.09c.43 1.33-.29 3.1-1.48 3.8-1.7-.6-.23-3.29.89-3.89ZM337.88 83.57c3.71 1.21 8.41 1.82 10.5 5.55-3.13-.31-5.94-1.8-8.96-2.55l1.72 2.76c-1.46-.2-3.22-.06-4.03-1.57-.43-1.46.33-2.85.77-4.19ZM334.79 84.83c-.89 4.46-1.95 8.89-2.23 13.46-1.35-4.56-.36-9.54 2.23-13.46ZM243.67 86.76c1.78 1.22 3.8 1.96 5.98 1.72-.55 1.59-1.28 3.1-2.61 4.19.08 3.32 1.77 6.17 4.08 8.45-3.21-.74-6.38-1.77-9.03-3.79.87 2 1.82 3.97 2.74 5.96-3.68-2.07-6.52-6.04-5.81-10.43-.27-1.74 1.76-2.08 2.98-2.35-.48-.39-1.43-1.19-1.9-1.59 1.07.15 3.22.45 4.3.61-.18-.7-.55-2.08-.73-2.77ZM257.49 96.59c-1.61-2.48-2.64-8.42 1.51-8.6 5.37 1.5 9.39 5.69 13.81 8.86-3.07-.54-6.22-.69-9.2-1.61 1.68-.13 3.37-.17 5.07-.11l.11-1.13c-4.03-1.14-6.67 2.69-10.56 2.56 0 .66.01 1.97.02 2.63l-.76-2.6ZM61.27 92.28c1.32-1.09 3.23-1.91 4.33-.01 1.59 2.22 2.32 5.02 2.36 7.73-.19 2.18-3.09 3.4-4.53 1.45-1.99-2.43-3.91-6.12-2.16-9.17Z"/><path d="M68.52 97.83c-1.37-2.65 1.94-5.32 4.44-4.73 2.12.57 4.06 1.85 5.26 3.72 2.49 3.62 5.17 7.16 6.97 11.19.7 1.61 1.68 3.07 3.02 4.22-.12-2.12-1.43-3.82-2.43-5.59 2.47.98 4.98 1.9 7.32 3.18-1.01 4.3-3.77 8.72-2.01 13.2 3.54 9.04 12.07 14.55 18.12 21.67.45-.74.89-1.47 1.33-2.21 3.44 2.13 6.09 5.46 9.96 6.88 5.19 2.15 10.39 4.27 15.55 6.5 5.5 2.13 8.13 8 13.12 10.9 2.53 1.41 4.92 3.12 6.7 5.45.1-1.91.3-3.81.95-5.62 2.38.34 4.6 1.45 6.11 3.35 2.44 2.5 2.17 6.24 3.27 9.34 1.78-.34 1.79-2.15 2.18-3.56 5.73 2.6 10.25 7.1 15.58 10.35-4.04-5.05-9.45-8.76-14.84-12.22-1.16-.7-2.08-1.72-2.91-2.79 5.92-1.24 11.64 1.03 16.51 4.22 3.22 2.33 6.06-1.82 9.33-1.94 10.63-1.52 21.11-4.01 31.44-6.94 5.31-1.34 7.93-7.27 13.36-8.34 5.12-.98 10.17 2.38 15.2.41 6.58-1.12 11.22-6.17 16.93-9.12.8.27 2.39.79 3.19 1.06-1.33 6.4-4.2 12.42-4.95 18.97 1.67-.69 2.51-2.34 3.39-3.81 2.42-4.21 4.68-8.51 6.76-12.9 2.12 1.1 4.29 2.15 6.65 2.61 1.87 5.33.67 11.1 1.73 16.57.58 4.9 4.22 8.85 4.37 13.87-1.99-.03-3.4 1-3.39 3.06-1.74.14-3.04 1.1-2.9 2.98-2.13-.07-3.17 1.12-3.05 3.22-.7-.01-2.1-.02-2.8-.03-.02.67-.07 2-.1 2.67-2.12-.36-3.7.47-3.31 2.83-1.72-1-3.87.1-3.27 2.3-1.68-.58-3.71.03-3.52 2.13-1.72-.18-3.38-.06-3.8 1.91-1.66.02-3.51-.05-3.38 2.17-2.17-1.38-3.57.5-4.62 2.15 2.58-10.91 5.14-21.84 8.66-32.49-2.41 2.37-3.26 5.73-4.79 8.64-1.76.16-2.61-1.48-3.45-2.71-4.24-7.24-8.23-14.83-14.24-20.79-1.43-1.59-4.46-2.86-5.94-.66 9.51 6.16 17.09 15.85 19.29 27.12.19 5.63-1.75 11.51-5.6 15.7-2.65.95-6.28.36-8.33 2.01 2.19 2.51 5.88 3.19 8.68 4.95-.66.38-1.35.66-2.08.85-14.43-.62-28.96-4.09-41.24-11.89-2.95-2.13-5.46-5.8-9.49-5.57-.09.31-.27.94-.35 1.25 3.78 3.84 8.64 6.34 12.83 9.68 4.33 3.44 9.7 5.16 14.97 6.61 2.42.71 5.05 1.08 7.07 2.71-7.33.72-14.72.53-22.06 1.32-10.63.07-21.55 1.73-31.94-1.32-9.88-2.63-19.49-6.18-28.96-10.02-4.3-1.77-8.92-2.99-12.73-5.74-1.8-1.32-1.69-4.44-4.16-4.9-3.21-.77-5.24-3.4-7.4-5.68-3.15-3.35-7.96-4.51-10.97-8.02-3.45-3.96-8.02-6.82-11.12-11.1-6.45.17-12.12-3.81-16.13-8.54-.67-1.21-2.54-4.74.05-4.52 2.41 4.36 6.09 8.49 11.38 8.93 4.28-.04 9.46 1.12 12.88-2.17 2.41-3.67 3.87-8.01 4.52-12.33.48-3.05-1.82-5.38-3.36-7.7-.54.34-1.08.69-1.61 1.04 2.1 2.47 4.51 5.86 3.13 9.25-1.36 4.05-2.04 10.46-7.56 10.6-5.16.29-12.26 1.07-15.35-4.07-2.01-4.26-3.93-8.58-6.54-12.51-3.77-5.72-6.9-11.82-10.7-17.51 1-.78 2-1.56 2.99-2.36-4.27.84-9.46-.81-11.04-5.19-.77-4.28-1.18-8.77-.14-13.04 1.36-2.29 4.55-2.77 6.96-2.11-.44 1.75-.93 3.49-1.36 5.24.84-.69 2.53-2.09 3.37-2.78-.26 1.24-.77 3.73-1.03 4.98.75-.77 1.5-1.54 2.26-2.31 1.06 1.36 2.28 2.6 3.76 3.5-1-2.31-1.96-4.63-2.64-7.06-1.13-5.08-6.7-7.52-7.95-12.57m98.76 84.77c-2.07 3.13-.96 7-1.56 10.48-.56 3.24-1 6.51-.7 9.81 4.47-5.61 3.39-13.72 2.26-20.29m-13.83 6.64c-1.16 1.87-2.48 3.68-4.24 5.03-2.77 2.47-6.73 2.8-9.49 5.29 3.53 2.03 8.33 1.18 11.05-1.81 2.4-2.6 3.87-5.98 4.41-9.46-.44.23-1.3.71-1.73.95m70.08 9.54c.15.47.44 1.42.59 1.89 3.7 3.53 8.7 5.71 13.8 6.11-3.56-4.1-8.63-8.34-14.39-8ZM294.96 95.89c1.15-.6 2.32-1.17 3.38-1.95.05 1.42-1.1 2.28-1.87 3.28l3.31-.3c-.09-.43-.28-1.27-.38-1.7l2.4.24c-.46.63-1.38 1.9-1.84 2.54h-3.79c-.3-.53-.91-1.58-1.21-2.11ZM300.92 98.88c.67-1.3 1.41-3.99 3.15-3.96.54 1.69-1.48 4-3.15 3.96ZM336.5 95.64c1.84-1.67 4.32 1.24 4.33 3.07-1.57 2.8-6.01-1.53-4.33-3.07ZM352.89 94.75c.65 6.51-.41 13.36-3.44 19.18 2.24 5.3 5 10.38 6.79 15.86 1.41 4.31.3 8.91.98 13.32.76 5.3 1.89 10.55 2.63 15.85 1.82 16.26-.79 32.53-1.27 48.78.45.67.91 1.34 1.38 2.01l.55-1.69c1.82 1.96 3.92 3.85 4.75 6.49 1.57 4.5.16 9.29-1.07 13.69-1.49 5.46-6.06 9.3-8.07 14.52 4.69-2.37 6.72-7.58 10.36-11.12 2.99 3.73 3.3 8.65 3.99 13.19.93 7.96 1.46 16.09 0 24.01-.84 4.8-3.18 9.13-4.69 13.72 6-3.22 4.93-11.48 9.18-16.21 1.25 5.99-1.07 11.86-1.7 17.78 2.78-5.26 5.02-11.05 5.21-17.06-.91-8.88-4.82-17.14-6.07-25.97-1.06-8.63-3.04-17.1-4.77-25.61-.87-4.18-4.09-7.21-7.32-9.71 1.74-9.39 1.82-18.95 1.77-28.46 6.09-1.33 9.65-8 15.95-8.52 6.03 1.42 11.55 4.84 16.13 8.97 3.93 4.42 6.49 9.99 8.12 15.64-5.41-6.79-11.55-15.53-21.42-14.72 3.4 3.19 7.87 4.9 11.32 8.04 3.34 2.96 6.59 6.09 9.21 9.73 2.69 3.63 2.94 8.29 3.65 12.59.35 3.54 1.47 7.39-.4 10.7-1.82-5.18-2.11-10.7-3.35-16-.92-3.84-3.67-7.6-7.8-8.21 1.16 5.8 6.43 10.22 6.12 16.43-.66 8.43-3.61 16.46-6.16 24.46-5.56 16.11-11.95 31.95-16.72 48.32-.56 1.8-.72 3.67-.66 5.55 4.73-8.95 7.46-18.77 10.88-28.26 4.06-11.31 6.69-23.33 12.93-33.72.49 8.76-.69 17.49-1.11 26.22-.69 5.47-.56 11.22-2.99 16.31-4.68 10.34-10.52 20.32-18.31 28.65-3.14 3.15-6.49 6.42-10.85 7.78.51.31 1.02.63 1.54.94 3.22-1.42 6.09-4.63 9.86-4.13 17.29 1.87 34.6 3.66 51.9 5.42 1.33-1.32 2.66-2.65 3.98-3.98-5.54-.46-11.05-1.15-16.58-1.67 3.19-8.19 4.29-17.12 2.81-25.81-.44-7.04-4.96-13.02-5.22-20.09-.92-6.84.43-13.63 1.17-20.4 6.43-3.79 14.06-4.66 20.78-7.82 1.52-.51 2.01-2.22 2.1-3.66.12-3.27-.91-6.67-3.09-9.14-4.59-.04-8.93 1.81-13.46 2.27 6.12-4.2 13.43-6.2 19.62-10.27 3.71-2.83 3.77-8.04 4.15-12.27-8.46 1.55-16.29 5.25-24.33 8.17-3.56 1.55-7.85 2.32-10.2 5.73-.26-.77-.53-1.54-.8-2.3 16.56-11.53 32.71-23.65 49.15-35.37V375H301.5c4.2-.61 8.77-1.44 11.72-4.8 3.96-3.79 3.66-9.72 3.07-14.72-1.58-9.55-5.07-18.63-7.8-27.88-.97-2.8-1.56-6.15-4.23-7.89-5.05-3.38-11.05-6.45-13.35-12.49-.44.19-.87.39-1.29.61 4.79 7.24 1.7 16.86-4.48 22.2-.83-.26-1.66-.76-2.54-.52-.11.77-.11 1.55 0 2.34-2.69 1.49-5.55 2.6-8.5 3.45-4.34.93-9.1 1.25-13.37-.09-.72-.07-2.16-.2-2.88-.27 1.42-.59 2.84-1.19 4.22-1.87l-3.67-.31v-.9c4.43 1.37 9.11 1.38 13.69.96 2.17-.19 4.42-.94 6.49.32l-1.22-2.34c.48.24 1.43.7 1.9.93 1.92-2.21 4.2-4.04 6.71-5.53l.8 1.88c1.42-1.88.48-3.43-1.58-4.04-.82-.74-1.63-1.47-2.44-2.19-1.34-.85-2.65-1.71-3.96-2.59-5.11 8.64-20.44 7.3-23.57-2.38-1.63-5.61 2.93-10.24 7.68-12.27.2-.33.61-.99.81-1.33-1.86-.02-3.08-.82-3.67-2.41 1.44-2.76 5.63-2.88 7.73-.84 1.09 2.01-1.05 2.71-2.36 3.62-.22-.95-.65-2.84-.87-3.78-.59 1.29-1.8 2.69-.36 3.9 4.29.55 9.21.18 12.58 3.51 3.48 2.48 3.91 6.99 3.22 10.89 2.98 2.23 6.61 3.2 10.32 2.96.93-4.02.89-8.2-.47-12.13-.84 2.14-1.41 4.54-3.56 5.79-.23-1.11-.68-3.32-.91-4.43-.96 1.32-.76 2.9-.63 4.42-1.38-.91-3.52-1.46-3.63-3.44 1.51-2.31 4.8-3.57 7.06-1.46.4-.72.81-1.44 1.22-2.15-3.49-3.74-7.17-7.68-12.19-9.28-5.98-2.47-12.65-1.64-18.75-.1-5.55 2.25-11.13 6-13.17 11.91-1.52 4.6-1.42 10.46 2.07 14.15-.1.3-.28.91-.37 1.21 1.59.24 3.19.51 4.79.77l-1.72-1.54c1.66-2.59 4.74-2.25 7.37-2.35.76 1.84.52 3.66-.66 5.26-.41-.98-1.23-2.93-1.63-3.91-.13 1.38-.24 2.78-.33 4.17l-.19-.07c-.42-1.36-.9-2.68-1.49-3.96l-.22 2.99c-1.71-.16-3.41-.3-5.11-.44 1.68 3.06 4.73 3.46 7.72 2.72l-.61 1.26c.87.24 2.62.73 3.5.97-1.1.42-2.2.85-3.29 1.3l3.77 1.06c-1.53.11-2.98-.34-4.39-.86.17-.84.36-2.94-1.04-2.57-.28.38-.84 1.12-1.12 1.49-.78-.6-1.57-1.2-2.34-1.8-2.44-3.03-5.27-6.04-5.98-10.02-.58-1.86-.25-4.03-1.2-5.75-.2.12-.61.35-.82.46-.48 1.2-.96 2.4-1.44 3.61-1.25-1.61-2.48-3.23-3.7-4.85-1.57-4.73-.48-9.95 3.16-13.42l-1.53-1.57c.36-.28 1.06-.85 1.41-1.13l-2.29-.08c1.21-.79 2.43-1.57 3.66-2.32-.29.93-.88 2.8-1.17 3.73 1.68-.93 3.21-2.06 1.48-3.84.51-.06 1.53-.17 2.04-.23.34-.4 1.02-1.19 1.37-1.59-.89-1.44-1.72-2.92-2.28-4.51 2.64 2.35 5.41 4.55 8.51 6.29 1.91 1 1.41 3.5 1.91 5.25 7.13-4.32 16.4-5.44 24.24-2.47 2.71.6 6.11-1.98 8.37.54-.96 1.29-3.29.76-4.78 1.32 3.17 1.49 5.85 3.84 7.75 6.78.31-.17.92-.52 1.22-.7-.94-1.17-1.92-2.3-2.9-3.42-.01-2.49-.01-4.97 0-7.46 11.26.94 22.48 2.35 33.73 3.4 2.34 5.12 7.78 7.41 12.67 9.41 10.25 4.06 21.79 4.67 32.37 1.51.16-.27.46-.82.62-1.1-3.3 1.15-6.79 2.32-10.32 1.7-8.05-1.26-16.34-1.86-23.98-4.89-3.12-1.21-6-3.28-7.56-6.31-3.22-5.99-4.78-12.74-5.64-19.45-.44-4.22-.98-8.63.36-12.76 3.45-8.19 10.24-14.41 13.94-22.46-5.73.99-7.56 6.9-10.98 10.73-.7-2.12-1.33-4.36-.9-6.62.69-5.23 1.37-10.46 1.89-15.71.88-6.01 1.58-12.89 6.91-16.77-.18 1.01-.55 3.03-.73 4.04 1.65 1.1 3.45 2.06 5.47 2.22 9.5 1.15 18.77-3.15 26.2-8.7 2.11-1.22-1.66-1.96-2.38-2.66-.32 3.42-3.77 4.64-6.38 5.94-6.57 2.97-14.42 5.56-21.26 1.88 2.46-7.64 4.63-15.37 6.87-23.08 1.47-5.12 4.33-9.82 5.19-15.1-1.74-5.47-6.5-9.37-8.35-14.83-3.05-6.26-3.31-13.28-4.22-20.04-1.13-3.62-8.21-5.64-5.58-10.01 3.45-.36 6.68 1.5 10.09 1.88-3.68-2.1-9.44-2.94-10.12-7.99.8-1.09 1.86-1.96 2.86-2.86 3.83 1.51 7.38 3.62 11.15 5.27-2.22-2.84-4.15-5.89-6.47-8.65.19 1.36.39 2.7.61 4.06-1.56-.78-3.1-1.55-4.64-2.33 1.94-3.3 3.55-7.77 7.64-8.86 5.29 2.86 7.25 9.78 13.07 11.86-3.02-3.18-5.95-6.74-6.38-11.3-2.15-.92-4.28-1.85-6.29-3.01-2.7-.08-5.53-.07-7.81-1.72 2.64-1.22 5.39-2.44 8.35-2.54 4.44-.48 8.48 1.88 12.04 4.24 1.53-6.07 2.47-12.26 3.84-18.37m-95.84 221.4c1.4 5.5 7.69 7.78 12.87 7.11 3.01-.75 5.82-2.29 7.6-4.91-.33-.24-.98-.73-1.3-.97.53.24 1.58.71 2.11.95-.21-2.32.31-4.79-.62-7-1.95-3.84-6.41-5.9-10.61-5.51-5.39-.22-11.32 4.55-10.05 10.33m-13.79-4.93c-.26.26-.78.79-1.04 1.05.49 1.13 1.18 1.18 2.08.13-.26-.3-.78-.88-1.04-1.18m37.31 20.05c.34.5.34.5 0 0m-1.9.99c.55.52.55.52 0 0m-4.4 1.52c1.21.9 1.98.69 2.32-.62-1.3-.87-2.07-.66-2.32.62m-11.29 1.3c3.43.24 6.88.2 10.32.14-.34-.82-.93-1.33-1.77-1.54-3.32-.05-6.64.02-9.97-.01.36.35 1.07 1.05 1.42 1.41Z"/><path d="M343.35 109.19c1.69-4.45 3.49-8.86 5.46-13.2-1.13 4.28-2.08 8.68-3.83 12.75-.41.11-1.22.33-1.63.45ZM262.38 100.46c-.69-1.51 1.52-1.49 2.36-2.14.51.25 1.53.74 2.04.99.91-.75 1.98-1.17 3.17-1.01-.68.32-2.03.95-2.71 1.27 1.09-.1 3.28-.29 4.37-.38-.28.59-.83 1.77-1.11 2.35-2.11.05-3.74-1.21-5.28-2.45.49.82 1.47 2.47 1.95 3.3-1.67-.44-3.4-.86-4.79-1.93ZM242.48 105.91c.41 3.74 1.34 7.4 3.45 10.58-4.51-1.53-5.15-6.71-3.45-10.58ZM357.96 110.47c2.15-.12 4.29-.42 6.43-.78 1.5 4.33.6 9.61-4.09 11.51.6-1.46 1.17-2.93 1.73-4.41-1.99 2.35-3.52 5.27-6.38 6.7l-.76-.45c2.08-2.46 4.6-4.71 5.33-8.02-1.25 1.3-2.49 2.62-3.7 3.95l-.3-.29c.96-1.85 1.79-3.76 2.51-5.71-.19-.63-.58-1.88-.77-2.5ZM357.09 126.5c1.25-1.18 2.49-2.39 3.75-3.57-.49 2.83-1.08 5.68-2.35 8.27-.47-1.57-.93-3.13-1.4-4.7ZM288.75 128.8c1.5-.44 2.65.88 3.85 1.54-4.48 2.56-11.91 5.62-15.42.11 3.9-.24 7.74-.9 11.57-1.65ZM101.23 133.69c7.58-1.38 15.22-2.39 22.85-3.48-5.78 3.29-12.19 5.31-17.81 8.9-1.77-1.72-3.4-3.58-5.04-5.42ZM280.7 135.14c3.65.09 7.29-.22 10.69-1.66l-.36 1.36c-2.64.89-5.3 1.86-8.1 2.01-1.11-.01-1.86-.57-2.23-1.71ZM318.4 141.74c1.48-1.74 2.95-3.51 4.38-5.31-.21 2.4 1.15 4.28 2.64 5.97a98.515 98.515 0 0 1-3.5 4.63c-1.03-1.86-2.17-3.65-3.52-5.29ZM305.1 143.16c2.72-1.71 5.89-2.58 9.11-2.16-.55.3-1.65.89-2.2 1.19-.11 1.49-.23 2.97-.36 4.46-1.17.51-2.33 1.02-3.49 1.52.34.62 1.01 1.86 1.35 2.47-1.62.26-3.11-.1-4.48-1.07-3.73 3.23-6.5 7.32-8.9 11.58.81-6.27 5.86-10.74 10.42-14.59-.44-1.15-.99-2.26-1.45-3.4ZM317.33 145.28c3.92 2.11 4.54 7.11 4.58 11.12-1.92-3.53-2.93-7.46-4.58-11.12ZM314.15 148.79c4.05 1.9 5.66 6.61 3.61 10.63-2.07-.85-1.48-3.36-2.3-5.03-.73-1.86-3.33-3.63-1.31-5.6ZM319.6 167.5c4.25-3.54 6.87-8.51 10.36-12.72-.09.69-.25 2.09-.33 2.78-2.52 3.47-5.39 6.69-7.85 10.21-4.59 6.67-11.19 11.75-15.27 18.81-1.9 3.16-2.07 6.95-3.07 10.43-1.96 7.24-3.91 14.56-7.14 21.35-2.65 4.29-5.91 8.2-9.22 11.99.9-10.83.59-21.76 2.23-32.52.31-2.78 2.43-4.82 3.09-7.47a42.458 42.458 0 0 0-5.36 5.11c.75 3.17-.4 6.37-.46 9.57-1.36 13.32-.94 26.79-2.74 40.06-2.31 7.28-8.91 12.64-10.16 20.4-.62 6.07 1.14 12.02 2.36 17.91-3.32-4.91-5.26-10.67-6.58-16.42-1.49-9-.07-18.14-.46-27.19-3.17 2.04-2.53 6.46-3.31 9.71-1.11 4.98.3 10.05-.61 15.03-3.17-1.97-5.83-4.89-7.08-8.44-.46-1.77-1.95-2.9-3.1-4.2.49-.43 1.47-1.28 1.97-1.71l.12 3.39c.66-.89 1.97-1.77 1.54-3.06-.61-.18-1.81-.55-2.42-.73l-.36-2.7c.38-.37 1.13-1.11 1.51-1.48.26 1.24.26 2.5.18 3.77.91-.9 1.99-1.82 1.6-3.27-1.42-.57-2.89-.99-4.34-1.42.28-.58.84-1.72 1.12-2.3-.47-.07-1.41-.22-1.88-.29.18-.6.53-1.82.71-2.42-.58-.22-1.75-.65-2.34-.87a76.55 76.55 0 0 0-1.56-3.3c-.69-.8-3.11-2.66-.35-3.04 1.21 2.29 2.53 4.52 4.74 6.02-.39-1.14-1.19-3.42-1.59-4.56.14-5.31.63-10.63 1.57-15.86.8-.64 1.59-1.29 2.38-1.94.66-.04 1.96-.13 2.62-.18-.13-.78-.4-2.35-.53-3.13 1.15-.79 2.36-1.48 3.82-1.33 1.03-1.06 1.99-2.43 3.69-1.9 1.01-1.25 2.09-3.69 3.86-1.63-.58.56-1.73 1.69-2.3 2.25.76-.11 2.29-.32 3.05-.43-.71-2.12-.57-5.13 2.39-5.1-.04.54-.11 1.62-.15 2.16h-1.76c.67 2.26 2.41.36 3.65.12-.35-.52-1.06-1.56-1.41-2.08.54-.84 1.09-1.68 1.64-2.51 2.66.75 2.49-3.53 5.19-3.13-.46 1.17-.91 2.34-1.36 3.52 2-.52 3.72-2.38 1.34-4.51 1.01.51 2.02 1.02 3.03 1.54 1.02-.89 2.13-1.84.91-3.16.06-.66.19-1.98.25-2.65.65-.03 1.95-.1 2.6-.13.12-.7.35-2.09.47-2.79 1.44-.53 2.93-.92 4.42-1.3l-2.06-1.11c.78-.62 1.67-1 2.66-1.15.71-1.6 1.06-3.65 3.15-4.05a7.313 7.313 0 0 1-1.64 3.89c1.12-.26 2.14-.75 3.04-1.46-1.34-2.05-2.18-5.61 1.52-5.39l-1.28 3.52c.94-.69 1.89-1.4 2.82-2.12-.62-.76-1.87-2.29-2.5-3.05 2.04 1.18 4.04 1.68 4.9-.9-1.22-1.11-2.25-2.39-3.2-3.72l2.46-.21c-1.64-1.15-1.52-2.44 0-3.62-.33 1.09 1.72 4.25 2.05 1.66.6-1.85-2.3-1.68-3.35-2.38l-.28-2.5 1.96-1.16c-.09 1.07-.23 2.14-.36 3.21 5.46 1.52 12.07 2.01 16.79-1.72m-25.33 20.46c-.29.33-.88.98-1.17 1.31.15 2.52 3.57-1.18 1.17-1.31m-15.87 15.02c-.9.04-3.18 1.71-1.38 2.22 1.14.41 3.1-1.86 1.38-2.22m-11.18 7.4c-1.61.63-1.8 1.26-.58 1.91 1.57-.61 1.76-1.25.58-1.91m-4.02 1.98c-1.6.67-1.77 1.31-.52 1.92 1.56-.66 1.73-1.3.52-1.92m11.11 19.78c-4.58 2.94-5.19 8.97-4.31 13.88.46 3.32 3.52 5.91 6.92 5.57 3.45-.75 5.25-4.32 6.03-7.46.32-3.45.71-7.43-1.66-10.3-1.52-2.17-4.64-2.55-6.98-1.69m-19.07 6.89c-.49.94.51 2.92 1.68 2.61.83-1.04-.32-3.2-1.68-2.61Z"/><path d="M308.92 159.26c1.35 1.12 4.66 1.25 4.51 3.39-2.05 2.04-5.3-.95-4.51-3.39ZM287.99 163.16c1.68-1.35 3.4-2.65 5.16-3.88.97 3.21 2.87 6.06 5.55 8.12-1.56 1.35-1.82 3.42-.07 4.82-.79 1.11-1.07 2.33-.83 3.65-.95.35-1.88.74-2.79 1.17.12.88.29 1.75.5 2.62-.65.07-1.96.23-2.62.31-.05.88-.16 2.64-.21 3.51-4.1-5.72-4.62-13.43-4.69-20.32ZM310.68 184.72c7.21-7.78 13.41-16.4 19.85-24.8 1.44 7.54 6.25 13.63 10.03 20.07-2.65 10.81-8.26 20.7-10.65 31.61-2.94 2.14-6.12 4.5-7.21 8.15-4.36 12.62-5.34 26.03-7.42 39.12-1.09 6.39.31 12.78.97 19.13-5.31 3.01-11.58 3.67-17.51 2.45 4.48 3.36 10.48 1.92 15.64 1.45-1.29 1.55-2.79 3.1-2.69 5.3 2.09.04 4.17-.18 6.22-.57.49 2.23 1.03 4.46 1.55 6.7-8.84-.72-17.62-2.13-26.48-2.57 1.55-2.36 3.61-4.75 3.39-7.77-.34-3.82-1.04-7.87-3.35-11.04-.89-1.45-3.52-1.8-4.29-.04-1.89 2.99-1.7 6.72-2.99 9.96-2.55-2.82-4.46-6.13-6.86-9.06 1.13 4.01 3.19 7.74 5.9 10.89-1.21 1.25-2.57 2.34-4.36 2.51-2.44-7.79-3.09-16.05-2.22-24.15 1.23-3.45 3.92-6.1 5.5-9.38 2.64-5.33 3.39-11.39 3.37-17.27 4.68-5.6 9.21-11.44 12.44-18.02 3.88-9.1 5.23-19.03 8.58-28.32.57-1.61 1.38-3.13 2.59-4.35ZM313.47 167.25c1.25-1.89 2.78-3.57 4.45-5.09.54 2.7-1.8 5.06-4.45 5.09ZM282.12 197.35l.94-.45c2.59.45-1.11 2.61-.94.45ZM257 213.21c1.67-.46 2.25.1 1.74 1.67-1.69.46-2.27-.09-1.74-1.67ZM253.67 215.06c.82-1.14 3.13.12 1.94 1.33-.83 1.08-2.86-.19-1.94-1.33ZM251.49 232.15c-.67-3.44-1.44-7.71.9-10.66-.17 3.56-.33 7.14-.9 10.66ZM248.23 223.06c1.59-.6 2.12-.05 1.58 1.64-1.61.57-2.13.03-1.58-1.64ZM411.47 222.79c1.02 6.31 2.02 12.75 1.33 19.15-1.79 6.11-5.59 11.43-7.25 17.59-.59 1.51-.03 4.51 2.17 3.34 1.34-2.08 2.17-4.48 3.85-6.35 2.55 5.47 4.71 11.43 4.47 17.55-1.36 5.58-6.6 9.5-7.39 15.32 3.21-.47 6.04-2.28 9.29-2.56-.77 5.61-1.95 11.16-2.37 16.82-11.59-1.28-23.2-2.43-34.79-3.76 7.57-6.93 13.46-15.72 16.89-25.41 5.41-14.95 5.48-31.01 6.57-46.68 2.29.7 1.38 3.52 1.69 5.3.03 3.5-1.11 6.9-.97 10.42 5.08-5.58 5.52-13.62 6.51-20.73ZM248.28 225.96c1.64-.78 2.43 2.02.76 2.42-1.6.63-2.23-1.92-.76-2.42ZM248.35 229.31c1.51-1.26 2.89 1.56 1.48 2.46-1.54 1.11-2.92-1.53-1.48-2.46ZM274.42 234.27c1.45-.72 3.57-.7 4.51.83 2.29 2.93 2.13 7.11.78 10.42-.84 1.85-2.39 3.95-4.71 3.66-2.18-.12-3.08-2.45-3.7-4.19-.91-3.74.08-8.2 3.12-10.72Z"/><path d="M290.36 272.54c2.92 3.45-.81 7.99.98 11.88-1.88-.02-3.73.28-5.55.71 2.59-3.77 3.14-8.36 4.57-12.59ZM247.88 273.47c2.2 1.48 2.09 4.27 2.95 6.5.92 3.08 2.96 5.64 4.57 8.38-2.89-1.69-5.77-3.59-9.23-3.73 1.18-.58 3.05-.36 3.71-1.61-.42-3.23-1.68-6.29-2-9.54ZM260.15 287.51c5.57-1.17 11.34-1.41 16.94-.23-3.13 1.58-6.69 1.72-10.11 1.69-2.33-.12-4.88.05-6.83-1.46ZM263.27 293.34c3.09-.1 6.3.03 9.12 1.43-3.04.24-6.65.83-9.12-1.43ZM268.64 302.05c1-1.69 2.64-2.72 4.32-3.62 1.36.84 2.97 1.4 4.04 2.66.42 1.76-1.62 2.48-2.71 3.32-.15-.85-.43-2.56-.58-3.41-1.33.17-2.79.28-2.94 1.94l2.37-1.17c-.18.7-.56 2.11-.75 2.81-1.28-.82-2.53-1.65-3.75-2.53ZM234.99 304.17c-1.67-.44-.56-2.99.92-2.56 1.69.42.49 2.91-.92 2.56ZM251.2 304.17c1.42-2.58 4.19-2.53 6.77-2.5.42.67 1.25 2.03 1.67 2.7-.99 1.22-1.99 2.74-3.67 1.54l.01 1.29c-1.87-.51-3.81-1.2-4.78-3.03m2.87 1.54c.85.72 3.06-.2 2.51-1.41-.92-.8-3.25.02-2.51 1.41ZM278.13 302.59c1.45.1 2.89.16 4.36.2.84.83 1.68 1.67 2.52 2.52-1.23 1.38-2.48 2.99-4.55 3.06.72-1 1.57-1.96 1.87-3.2-.98-.05-2.95-.15-3.94-.21.85.77 1.68 1.56 2.49 2.38-4.07 1.57-4.65-2.59-2.75-4.75ZM233.45 305.26c1.67-.61 2.18-.09 1.55 1.55-1.68.56-2.2.04-1.55-1.55ZM248.52 307.64c1.37 0 2.75-.01 4.12-.07l-.27.81c.66.48 1.32.97 1.99 1.47-.13.48-.37 1.46-.49 1.95-.47.3-1.4.91-1.87 1.21-.09-.73-.28-2.21-.37-2.95l-2.31.28c-.25.72-.75 2.16-.99 2.88-.66-.96-1.56-1.81-1.87-2.95.66-.9 1.35-1.78 2.06-2.63ZM234.3 312.35c-1.07-1.73-2.11-3.91.52-4.74-.44 2.04-.01 4.01 1.01 5.8-1 .72-1.91.05-2.81-.41l1.28-.65Z"/><path d="M250.2 311.98c.63.67.63.67 0 0ZM235.13 315.02c1.6-.5 2.15.08 1.65 1.73-1.6.51-2.15-.07-1.65-1.73ZM245.82 318.76c.55-1.07 1.13-2.11 1.71-3.15 1.66.08 3.32.09 4.99.06.62 1.05 1.21 2.1 1.78 3.18-1.4 1.03-2.84 2.06-4.58 2.43.64-1.22 1.35-2.39 2.06-3.56-1.19-.05-2.37-.09-3.56-.14v.94l2.02-.23-1.56 2.68c-.99-.69-1.92-1.47-2.86-2.21ZM293.64 314.8c2.61 5.51 6.18 10.49 10.37 14.93l-.91.16-.05-.5c-3.23-2.16-5.18-5.57-7.7-8.41 3.2 10.52 15.59 15.01 18.05 25.86-6.07-6.64-13.11-12.65-17.24-20.79-1.9-3.42-2.85-7.34-2.52-11.25ZM259.81 326.66c1.93-.06 3.86-.12 5.8-.14.51.82 1 1.67 1.45 2.54-.66.95-1.39 1.84-2.18 2.69a8.141 8.141 0 0 0-1.59-3.94c-.6.33-1.81.98-2.41 1.31.19.57.58 1.71.77 2.28-2.58-.63-2.98-2.65-1.84-4.74ZM269.75 326.63c1.92-.05 3.84-.07 5.77-.09 1.3 1.72 1.32 4.14-1.16 4.72-.14-.83-.43-2.48-.57-3.31l-1.2 4.2c-.35-1.03-1.04-3.11-1.39-4.15-.13.89-.38 2.67-.51 3.56-1.81-1.18-2.03-3.16-.94-4.93ZM276.82 341.34c3.98-.79 7.53-2.91 11.47-3.85-1.84 2.95-5.27 4.08-8.31 5.33-7.03 2.75-14.98 2.86-22.13.54-2.21-.78-4.62-1.99-5.28-4.45 7.61 3.26 16.15 4.21 24.25 2.43ZM238.41 351.55c14.86-.16 29.73-.16 44.6.05 7.1.19 14.25-.55 21.32.31-1.86 1.34-4.2.98-6.34 1.13-5.35.31-10.69.83-16.05.71-17.05-.22-34.13.02-51.15-1.08 2.39-1.08 5.05-1.03 7.62-1.12Z"/><path d="M286 354.86c9.39-.1 19.05-.22 27.85-3.9-5.58 6.39-15.11 5.68-22.83 5.83-12.97.05-25.94-.1-38.9-.63-9.05-.3-18.15.05-27.13-1.33-1.46-.17-2.58-1.15-3.28-2.38 3.04.68 6.11 1.31 9.25 1.45 18.34.34 36.69.95 55.04.96Z"/><path d="M301.99 361c4.78-.26 9.17-2.37 13.05-5.05-2.49 5.17-8.86 6.13-13.95 6.92-18.05.54-36.08-.96-54.13-.85-5.07-.12-10.16.22-15.2-.42 3.96-1.16 8.15-.66 12.22-.79 19.34.07 38.67.3 58.01.19ZM221.17 359.07c.98-.83 2.98.44 2.44 1.67-.96.67-2.98-.46-2.44-1.67Z"/></g><g fill="#221e1f"><path d="m7.2.01.93.01c6.95 3.88 13.56 8.31 20.25 12.62C46.17 24.29 63.8 36.21 81.44 48.1c1.01.74 2.03 1.49 2.97 2.32.16 7.96.66 15.9.79 23.86.03.69.08 2.07.11 2.77.69-.28 2.09-.83 2.78-1.1 4.06 1.49 5.41 5.55 6.53 9.32l1.26 3.66c2.05 5.5 2.38 11.5 1.06 17.21 3.94 2.32 8.15 4.58 10.72 8.52-4.32-.78-8.39-2.48-12.46-4.08-1.32 3.88-3.86 8.14-2.03 12.27 1.91 4.12 5.13 7.43 8.06 10.84 1.64 1.84 3.27 3.7 5.04 5.42.45.42 1.34 1.27 1.78 1.69 2.43.23 4.82.91 6.83 2.34 8.01 5.41 17.05 8.99 25.48 13.66 3.74 2.08 6.24 5.71 9.77 8.06 2.71 1.92 5.99-.07 8.97.16 1.76.71 3.29 1.89 5.04 2.64 2.92.68 5.95.71 8.87 1.41 4.42.85 8.57 2.82 13.04 3.46 6.63-.27 12.98-2.52 19.43-3.89 6-1.57 12.27-2.05 18.13-4.13 4.72-1.55 7.31-6.5 12.12-7.88 4.55-1.74 9.46-1.79 14.22-1.1 3.77.77 6.65-2.15 9.56-3.99 3.87-2.36 7.88-4.51 11.68-7.01-2.28-3.33-4.52-6.68-6.6-10.14-3.92-.39-7.38-2.53-8.88-6.26-2.96-.59-6.39-.84-8.55-3.24-1.85-1.82-1.82-4.57-2.22-6.95-1.84-1.39-4.26-2.52-4.98-4.9-.87-2.54.3-5.1 1-7.52-1.99-1.45-4.43-2.92-4.95-5.53-.27-3.38.65-6.71 1.03-10.05.1-2.42 2.68-3.28 4.34-4.49a25.95 25.95 0 0 1 3.69-3.72c.68 1.45 1.06 3.16 2.4 4.2 3.19-1.01 1.33-4.58 1.65-6.96.82-2.92 2.42-5.53 3.78-8.23-5.14-3.09-10.26-7.57-11.23-13.8-1.03-4.92 1.61-9.44 3.18-13.92-1.38 2.06-2.65 4.19-3.94 6.3-1-6.89 4.14-13.17 10.58-14.96 5-1.01 9.89.58 14.77 1.49-2.91-1.63-6.13-2.56-9.32-3.42 5.55-2.66 11.35.09 16.52 2.27-1.72-1.25-3.52-2.39-5.34-3.49 3.47-.13 6.91-.76 10.2-1.89 4.29-1.44 8.86-1.42 13.33-1.29-.7-.42-2.1-1.25-2.8-1.67 5.89-.52 11.79-1.61 17.71-.85 5.39 1.4 11.22 3.3 13.87 8.7-.17-1.1-.33-2.2-.49-3.29 5.23 1.17 10.49 2.98 14.49 6.69 4.67 3.98 6.78 9.89 9.77 15.06 3.46 6.05 6.88 12.28 11.87 17.24 2.31-.07 5.16-.95 7 .96 2.5 2.63 5.7 4.85 7.22 8.24 1.5 2.88-.63 5.76-1.43 8.49 1.05-1.02 2.09-2.05 3.12-3.1 2.7 5.36 2.15 11.97-1.72 16.63-2.81 4.44-7.83 6.39-12.65 7.77 2.57.2 5.12-.24 7.57-1 .72 2.66 1.67 5.43 1.04 8.21-.34 2.41-2.47 3.89-4.11 5.44-.12 2.78.21 5.73-1.05 8.32-.74 2-2.22 3.81-2.22 6.03-.36 8.26 1.78 16.33 2.8 24.47 9.57 3.87 19.47 6.91 28.92 11.09 3.84 1.62 6.26 5.23 8.27 8.71 5.04 8.9 8.09 18.71 12.02 28.1.27.76.54 1.53.8 2.3 2.55 8.75 4.68 17.81 4.43 26.99-.74 6.77-2.09 13.56-1.17 20.4.26 7.07 4.78 13.05 5.22 20.09 1.48 8.69.38 17.62-2.81 25.81 5.53.52 11.04 1.21 16.58 1.67-1.32 1.33-2.65 2.66-3.98 3.98-17.3-1.76-34.61-3.55-51.9-5.42-3.77-.5-6.64 2.71-9.86 4.13-.52-.31-1.03-.63-1.54-.94 4.36-1.36 7.71-4.63 10.85-7.78 7.79-8.33 13.63-18.31 18.31-28.65 2.43-5.09 2.3-10.84 2.99-16.31.42-8.73 1.6-17.46 1.11-26.22-6.24 10.39-8.87 22.41-12.93 33.72-3.42 9.49-6.15 19.31-10.88 28.26-.06-1.88.1-3.75.66-5.55 4.77-16.37 11.16-32.21 16.72-48.32 2.55-8 5.5-16.03 6.16-24.46.31-6.21-4.96-10.63-6.12-16.43 4.13.61 6.88 4.37 7.8 8.21 1.24 5.3 1.53 10.82 3.35 16 1.87-3.31.75-7.16.4-10.7-.71-4.3-.96-8.96-3.65-12.59-2.62-3.64-5.87-6.77-9.21-9.73-3.45-3.14-7.92-4.85-11.32-8.04 9.87-.81 16.01 7.93 21.42 14.72-1.63-5.65-4.19-11.22-8.12-15.64-4.58-4.13-10.1-7.55-16.13-8.97-6.3.52-9.86 7.19-15.95 8.52.05 9.51-.03 19.07-1.77 28.46 3.23 2.5 6.45 5.53 7.32 9.71 1.73 8.51 3.71 16.98 4.77 25.61 1.25 8.83 5.16 17.09 6.07 25.97-.19 6.01-2.43 11.8-5.21 17.06.63-5.92 2.95-11.79 1.7-17.78-4.25 4.73-3.18 12.99-9.18 16.21 1.51-4.59 3.85-8.92 4.69-13.72 1.46-7.92.93-16.05 0-24.01-.69-4.54-1-9.46-3.99-13.19-3.64 3.54-5.67 8.75-10.36 11.12 2.01-5.22 6.58-9.06 8.07-14.52 1.23-4.4 2.64-9.19 1.07-13.69-.83-2.64-2.93-4.53-4.75-6.49l-.55 1.69c-.47-.67-.93-1.34-1.38-2.01.48-16.25 3.09-32.52 1.27-48.78-.74-5.3-1.87-10.55-2.63-15.85-.68-4.41.43-9.01-.98-13.32-1.79-5.48-4.55-10.56-6.79-15.86 3.03-5.82 4.09-12.67 3.44-19.18-1.37 6.11-2.31 12.3-3.84 18.37-3.56-2.36-7.6-4.72-12.04-4.24-2.96.1-5.71 1.32-8.35 2.54 2.28 1.65 5.11 1.64 7.81 1.72 2.01 1.16 4.14 2.09 6.29 3.01.43 4.56 3.36 8.12 6.38 11.3-5.82-2.08-7.78-9-13.07-11.86-4.09 1.09-5.7 5.56-7.64 8.86 1.54.78 3.08 1.55 4.64 2.33-.22-1.36-.42-2.7-.61-4.06 2.32 2.76 4.25 5.81 6.47 8.65-3.77-1.65-7.32-3.76-11.15-5.27-1 .9-2.06 1.77-2.86 2.86.68 5.05 6.44 5.89 10.12 7.99-3.41-.38-6.64-2.24-10.09-1.88-2.63 4.37 4.45 6.39 5.58 10.01.91 6.76 1.17 13.78 4.22 20.04 1.85 5.46 6.61 9.36 8.35 14.83-.86 5.28-3.72 9.98-5.19 15.1-2.24 7.71-4.41 15.44-6.87 23.08 6.84 3.68 14.69 1.09 21.26-1.88 2.61-1.3 6.06-2.52 6.38-5.94.72.7 4.49 1.44 2.38 2.66-7.43 5.55-16.7 9.85-26.2 8.7-2.02-.16-3.82-1.12-5.47-2.22.18-1.01.55-3.03.73-4.04-5.33 3.88-6.03 10.76-6.91 16.77-.52 5.25-1.2 10.48-1.89 15.71-.43 2.26.2 4.5.9 6.62 3.42-3.83 5.25-9.74 10.98-10.73-3.7 8.05-10.49 14.27-13.94 22.46-1.34 4.13-.8 8.54-.36 12.76.86 6.71 2.42 13.46 5.64 19.45 1.56 3.03 4.44 5.1 7.56 6.31 7.64 3.03 15.93 3.63 23.98 4.89 3.53.62 7.02-.55 10.32-1.7-.16.28-.46.83-.62 1.1-10.58 3.16-22.12 2.55-32.37-1.51-4.89-2-10.33-4.29-12.67-9.41-11.25-1.05-22.47-2.46-33.73-3.4-.01 2.49-.01 4.97 0 7.46.98 1.12 1.96 2.25 2.9 3.42-.3.18-.91.53-1.22.7-1.9-2.94-4.58-5.29-7.75-6.78 1.49-.56 3.82-.03 4.78-1.32-2.26-2.52-5.66.06-8.37-.54-7.84-2.97-17.11-1.85-24.24 2.47-.5-1.75 0-4.25-1.91-5.25-3.1-1.74-5.87-3.94-8.51-6.29.56 1.59 1.39 3.07 2.28 4.51-.35.4-1.03 1.19-1.37 1.59-.51.06-1.53.17-2.04.23 1.73 1.78.2 2.91-1.48 3.84.29-.93.88-2.8 1.17-3.73-1.23.75-2.45 1.53-3.66 2.32l2.29.08c-.35.28-1.05.85-1.41 1.13l1.53 1.57c-3.64 3.47-4.73 8.69-3.16 13.42 1.22 1.62 2.45 3.24 3.7 4.85.48-1.21.96-2.41 1.44-3.61.21-.11.62-.34.82-.46.95 1.72.62 3.89 1.2 5.75.71 3.98 3.54 6.99 5.98 10.02.77.6 1.56 1.2 2.34 1.8.28-.37.84-1.11 1.12-1.49 1.4-.37 1.21 1.73 1.04 2.57 1.41.52 2.86.97 4.39.86l-3.77-1.06c1.09-.45 2.19-.88 3.29-1.3-.88-.24-2.63-.73-3.5-.97l.61-1.26c-2.99.74-6.04.34-7.72-2.72 1.7.14 3.4.28 5.11.44l.22-2.99c.59 1.28 1.07 2.6 1.49 3.96l.19.07c.09-1.39.2-2.79.33-4.17.4.98 1.22 2.93 1.63 3.91 1.18-1.6 1.42-3.42.66-5.26-2.63.1-5.71-.24-7.37 2.35l1.72 1.54c-1.6-.26-3.2-.53-4.79-.77.09-.3.27-.91.37-1.21-3.49-3.69-3.59-9.55-2.07-14.15 2.04-5.91 7.62-9.66 13.17-11.91 6.1-1.54 12.77-2.37 18.75.1 5.02 1.6 8.7 5.54 12.19 9.28-.41.71-.82 1.43-1.22 2.15-2.26-2.11-5.55-.85-7.06 1.46.11 1.98 2.25 2.53 3.63 3.44-.13-1.52-.33-3.1.63-4.42.23 1.11.68 3.32.91 4.43 2.15-1.25 2.72-3.65 3.56-5.79 1.36 3.93 1.4 8.11.47 12.13-3.71.24-7.34-.73-10.32-2.96.69-3.9.26-8.41-3.22-10.89-3.37-3.33-8.29-2.96-12.58-3.51-1.44-1.21-.23-2.61.36-3.9.22.94.65 2.83.87 3.78 1.31-.91 3.45-1.61 2.36-3.62-2.1-2.04-6.29-1.92-7.73.84.59 1.59 1.81 2.39 3.67 2.41-.2.34-.61 1-.81 1.33-4.75 2.03-9.31 6.66-7.68 12.27 3.13 9.68 18.46 11.02 23.57 2.38 1.31.88 2.62 1.74 3.96 2.59.81.72 1.62 1.45 2.44 2.19 2.06.61 3 2.16 1.58 4.04l-.8-1.88c-2.51 1.49-4.79 3.32-6.71 5.53-.47-.23-1.42-.69-1.9-.93l1.22 2.34c-2.07-1.26-4.32-.51-6.49-.32-4.58.42-9.26.41-13.69-.96v.9l3.67.31c-1.38.68-2.8 1.28-4.22 1.87.72.07 2.16.2 2.88.27 4.27 1.34 9.03 1.02 13.37.09 2.95-.85 5.81-1.96 8.5-3.45-.11-.79-.11-1.57 0-2.34.88-.24 1.71.26 2.54.52 6.18-5.34 9.27-14.96 4.48-22.2.42-.22.85-.42 1.29-.61 2.3 6.04 8.3 9.11 13.35 12.49 2.67 1.74 3.26 5.09 4.23 7.89 2.73 9.25 6.22 18.33 7.8 27.88.59 5 .89 10.93-3.07 14.72-2.95 3.36-7.52 4.19-11.72 4.8h-16.27c-17.76-.46-35.53-.87-53.29-1.09-4.48-.33-10.03-1.08-12.34-5.5-1.03-3.36-1.26-6.95-1.6-10.43.36-7.44 4-14.22 8.36-20.1-.37 1.15-1.09 3.45-1.46 4.6 7.47-5.2 13.97-12.51 16.41-21.43-1.42-1.43-2.8-2.9-4.19-4.33-.41 1.95 1.01 3.11 2.31 4.24-3.34 3.88-6.16 8.17-8.66 12.63-1.8 1.28-3.31 2.9-4.83 4.49 3.23-4.75 6.33-9.58 9.53-14.35-.02-.57-.07-1.72-.09-2.3-2.31.03-3.17-1.67-2.92-3.72-.64-.4-1.93-1.19-2.58-1.58.41-.62 1.23-1.87 1.64-2.49-.83-.46-1.66-.9-2.49-1.33-.01-1.03.64-1.87 1.04-2.76-1.63-1.41-1.06-3.21.36-4.48-.17-.71-.51-2.12-.67-2.83.55-.28 1.67-.83 2.22-1.11-.05-.8-.15-2.4-.21-3.21h2.7c-.65-2 .83-3.24 2.36-4.16l.16-2.34c.81-.29 2.44-.86 3.26-1.15-2.02-.6-4.09-1.03-6.18-1.19-20.34-1.98-40.65-4.38-61-6.22-38.15 26.57-76.42 52.98-114.61 79.49-1.82-.19-3.63-.37-5.45-.55 7.2-5.14 14.42-10.24 21.6-15.39 32.19-22.91 64.38-45.83 96.53-68.81 23.19 2.35 46.37 4.8 69.52 7.44.45-.38 1.33-1.15 1.78-1.53.67-4.28.7-9.93 5.31-11.99-.35-.79-.7-1.58-1.03-2.37.73-.46 1.48-.91 2.22-1.36-1.18-1.68-.6-3.12.93-4.22-.9-1.59-.54-2.99.97-4.01-.79-1.56-.82-3.04.75-4.08-.82-1.67-.6-3.22.91-4.41l-1.44-2c.33-.43 1-1.29 1.34-1.72-.23-1.31-.43-2.62-.63-3.92-1.04-.76-2.07-1.52-3.08-2.3l.96-1.56c-1.9-.63-3.01-2.04-2.9-4.07-2.07-.53-2.02-2.36-1.42-4.02-1.89-1.12-1.73-2.92-.58-4.55-.4-.51-1.18-1.54-1.57-2.05.54-.5 1.61-1.5 2.15-1.99-1.51-2.11.48-3.55 1.87-4.89-6.71.87-13.48.85-20.23 1.13-10.63.71-21.28 1.26-31.94 1.49-9.54-.43-19.52-.23-28.42-4.22-9.46-4.15-18.88-8.39-28.25-12.71-10.2-4.54-17.35-13.55-26.72-19.35-7.65-4.74-15.06-9.89-22.05-15.57.81 16.13 1.28 32.28 2.31 48.4-20.8 8.79-41.67 17.43-62.44 26.29-3.16 1.37-6.37 2.64-9.75 3.35-2.21-6.11-.15-12.74-1.99-18.89-.34-5.96.31-11.99-.96-17.88-.49-7.89.21-15.86-1.04-23.72-.03-9.1-1.07-18.14-1.4-27.22-1.54-7.94-.15-16.07-1.23-24.06-.97-6.65-.18-13.41-1.08-20.06-.84-6.28-.14-12.66-.99-18.94-.88-6.66-.11-13.42-1.06-20.08-.66-4.7-.08-9.47-.8-14.16-1.41-7.25.21-14.7-1.17-21.96-.47-2.57-.47-5.19-.44-7.79.16-10.68-.37-21.36-.35-32.04m8.11 14.98-.08 2.73c-.75 8.11.76 16.19.79 24.3 2.67 51.7 5.45 103.4 8.03 155.11.95 12.41.94 24.89 2.3 37.27-.16.34-.47 1.01-.63 1.35 1.36-.68 2.73-1.35 4.08-2.05.56-.21 1.66-.65 2.22-.86 1.09-.19 2.03-.66 2.83-1.4.4.06 1.22.18 1.62.23l.04-1.03c1.67-.37 3.31-.84 4.97-1.24l-.1-.78c1.95-.2 3.76-.97 5.49-1.86 1.51-.5 3.03-.99 4.56-1.41l-.07-.74c1.97-.28 4.03-.75 5.54-2.13l1.63.2-.06-1.12c1.43.27 2.56-.11 3.39-1.13.41.07 1.23.22 1.64.3l-.12-1.18c1.25.08 2.41-.16 3.49-.7 1.63-.74 3.31-1.37 4.98-2 .51-.28 1.55-.85 2.06-1.14 1.52-.44 3.02-.92 4.54-1.34l-.1-.78c1.74-.27 3.45-.73 5.16-1.15l-.2-1.05c.81.03 2.41.1 3.22.13-.13-7.14.67-14.4-.85-21.44-.72-6.29.98-12.99-1.05-19.04-.47-2.95.97-6.54-1.08-9.03-.13-2.52.35-5 1.07-7.4-.99-1.4-1.96-2.81-2.94-4.21-.52-1.18-1.05-2.35-1.61-3.5-2.83-4.52-4.99-9.5-8.35-13.66-3.15-3.12-8.79-5.07-8.77-10.28.01-7.87-.91-15.73-2.42-23.44-.98-2.97-2.75-7.5 1.12-9.23-2.7-1.63-5.1-3.65-7.29-5.89l-1.03-1.42c2.7.93 5.56 1.29 8.26 2.23 1-2.08 2.11-4.35 4.3-5.41 3.67-1.64 6.4-4.74 10.09-6.35 1.37-1.24 3.34-.81 5.02-1.02-.37-.29-1.13-.86-1.51-1.15.14-4.84.1-9.69.06-14.54-.55-.25-1.67-.76-2.23-1.02-4.56-2.85-8.81-6.25-13.7-8.53l-.13-.48c-1.27-.77-2.53-1.56-3.8-2.34-5.76-3.97-11.84-7.45-17.6-11.43-1.05-.77-2.25-1.31-3.47-1.74l-.13-.51c-3.49-2.2-6.95-4.45-10.43-6.66a80.85 80.85 0 0 0-3.73-2.37c-2.46-1.57-4.8-3.35-7.48-4.55-.52-.71-1.03-1.41-1.54-2.12M301 32.4c-1.66-.4-3.28-.83-4.92-1.27l1.82 1.07c-1.64 1.13-3.63.89-5.49.67.67.51 2.01 1.51 2.68 2.02-5.88-.68-11.68 1.33-17.56-.02.35.39 1.05 1.19 1.4 1.59-.32.41-.96 1.23-1.29 1.65-2.84-1.45-5.9-2.38-8.96-3.27 1.25 1.71 2.51 3.41 3.65 5.2-2.84-1.22-5.71-2.39-8.68-3.28.82 1.33 1.67 2.66 2.46 4.02-.74-.4-2.22-1.21-2.96-1.61.05.38.13 1.14.18 1.52-2.07-1.1-4.28-1.94-6.67-1.75 4.15 2.18 7.95 5.51 8.52 10.45.89-1.18 1.7-2.43 2.35-3.77.9 1.13 1.72 2.33 2.74 3.35.99-1.39 1.66-3.19 3.45-3.72-.08-.62-.23-1.86-.3-2.48 1.23 1.31 2.42 2.67 3.64 4 1.67-1.67 1.68-4.2 3.08-6.03 1.8 1.17 3.67 2.24 5.5 3.37.61-1.45 1.12-3.02 2.3-4.13a81.7 81.7 0 0 1 2.46 2.79c.66-.81 1.32-1.62 1.97-2.43 1.48-.17 2.97-.35 4.47-.52 1.07.66 2.16 1.31 3.26 1.95.58-.86 1.19-1.7 1.82-2.53.64.22 1.93.67 2.57.89-.17-.95-.52-2.85-.69-3.81 1.45.85 2.91 1.7 4.37 2.55-.87-1.4-1.74-2.79-2.63-4.17 1.89.32 3.76.8 5.62 1.31-.46-.92-.91-1.84-1.36-2.75-3.07-1.14-6.31-1.67-9.39-2.75.15.47.44 1.42.59 1.89m18.41 10.4c-1.77.71-3.58 1.35-5.35 2.06-.02-1.01-.05-3.02-.07-4.03l-2.03 2.33.64-3.07c-.35-.26-1.04-.76-1.39-1.01-2.12 2.11 1.84 4.42.86 6.96.17 2.7-3.13 3.12-5.12 3.33 1.72-2.98 2.43-6.54.4-9.57-.32 2.41-.32 4.84-.32 7.26-2.09 2.34-5.39 2.53-8.08 3.82-6.43 2.46-10.69 9.47-18.18 9.2-.89-.76-1.8-1.49-2.71-2.2 1.14-.56 2.41-.67 3.66-.87.01-1.47.04-2.94-.07-4.4-.24 1.51-.79 2.73-1.66 3.66-.07-.89-.2-2.69-.26-3.58-.8 1.58-1.47 3.25-2.41 4.76-1.21 1.64-3.58.91-5.26 1.13 1.8-2.57 2.44-5.64 1.48-8.66-.27 3.94-1.45 8.8-6.02 9.61-.53 1.08-1.07 2.15-1.59 3.23.6-.49 1.8-1.45 2.4-1.94.22 6.04-5.22 10.49-10.98 10.42-.39 4.96-1.32 9.88-1.36 14.88.7-.17 2.1-.51 2.8-.67 5.38 1.45 10.03 4.93 14.04 8.71 3.17 2.94 4.19 7.43 4.07 11.61h-.44c-.31-2.53-.51-5.36-3.02-6.8-.89.98-1.73 1.99-2.55 3.02-1.95.35-3.89.75-5.84 1.04-1.99-.2-3.7-1.37-5.49-2.15.54 2.36.65 4.79.34 7.2-.74 6.37-.52 13.26 2.98 18.86 3.77 6.54 6.76 13.63 11.49 19.56 4.75 5.28 12.74 8.31 19.53 5.31 2.27-2.39 4.21-5.13 6.96-7.02 4.29-3.17 9.69-6.68 15.18-4.21 3.11-2.21 6-4.71 8.83-7.25-1.64-3.04-1.45-6.8 1.85-8.49 1.62-3.76 3.33-7.89 7.17-9.89-2.38-.5-5.7-.85-6.45-3.67 1.21-1.5 3.2-1.91 4.9-2.63-4.32-1.59-5.72-6.36-5.68-10.56-.81-7.02 3.49-13.86 1.15-20.8-2.9-3.58-6.95-6.21-9.05-10.45 1.44 1.01 2.78 2.14 4.19 3.19-1.5-2.84-3.72-5.22-5.24-8.05.78.26 2.35.78 3.13 1.03-3.34-4.16-8.64-8.05-7.97-14.03 1.49-1.23 2.43-4.17 4.75-3.59-1.06 1.35-1.82 2.87-2.52 4.42 1.02 2.04 2.3 3.92 3.87 5.58 1.9 4.65 3.89 9.47 6.83 13.62.68-3.35-1.24-6.11-2.67-8.92 1.31 1.26 2.58 2.57 3.89 3.85 1.1-4.37-2.67-7.52-2.34-11.79-1.88-.87-3.79-1.72-5.69-2.53.33-.24 1-.71 1.33-.95-.07-.55-.22-1.66-.29-2.21 3.23-2.39 3.33-7.1 6.84-9.23a16.346 16.346 0 0 0-4.54-3.19c-1.14 2.86-2.05 5.8-2.92 8.76m12.99-1.71c3.76 5.51 5.48 12.75 11.85 16.04-3.38-5.69-6.08-12.3-11.85-16.04m-76.98 5.13c1.29 1.87 2.84 3.65 3.53 5.86.64 2.06-.88 4.21-2.96 4.53-2.79-.39-3.94-3.25-4.83-5.53-.1 1.75-.18 3.5-.26 5.25-1.96-2.13-2.4-4.97-2.55-7.75-1.68 3.3-1.44 7.38.82 10.35 2.35 3.52 6.65 4.95 10.72 5.09-1.64.59-3.29 1.15-4.93 1.74 2.02.13 4.04.19 6.07.17l-1.92 2.36c2.6-.5 4.52-2.34 6.23-4.23-.62.01-1.86.03-2.48.05 1.85-2.7 3.92-5.9 2.81-9.32-.71 1.78-1.44 3.54-2.3 5.25.39-2.75.75-5.51.63-8.29-.39.56-1.19 1.69-1.58 2.25.03-4-3.91-6.17-7-7.78m83.69 18.91c1.68 2.96 4.73 5.83 3.78 9.54-1.17 1.46-3.11 2-4.91 2.04-2.72-.31-4.69-2.39-6.89-3.8 1.51 2.44 3.19 4.77 4.99 7.01 5.88-.54 10.91 3.21 14.86 7.12 2.63 2.76 5.35 6.02 5.53 10.02-.02 7.3-2.93 14.12-4.33 21.18 2.69-3.51 3.04-8.2 4.07-12.38 5-.39 10.7-1.43 13.58-6.04 2.82-3.42 2.32-8 2.02-12.11-.86 1.53-1.7 3.07-2.59 4.58-.07-.74-.22-2.22-.29-2.97-.96 1.46-1.95 2.91-3.23 4.11.43-1.63.99-3.23 1.43-4.86-2.02 2.59-4.02 5.37-7.33 6.37 2.01 1.51 4.57 1.25 6.94 1.04-1.11 2.07-2.2 4.22-3.91 5.87-1.73 1.83-4.29 2.36-6.32 3.73 1.11-5.14 2.04-10.95-1.62-15.36 5.89-.5 7.26-7.17 9.98-11.28 2.12-.38 2.91 1.91 4.15 3.13.09-4.99-5.25-10.63-10.2-7.53.31-.66.94-1.99 1.25-2.65-1.01.37-3.03 1.13-4.05 1.51-1.28 3.14-1.73 6.58-3.32 9.59-.07-2.24.02-4.61-1.04-6.66-1.6-2.32-3.63-4.3-5.15-6.68l-.48-.03.17 2.48c-2.14-2.53-4.27-5.15-7.09-6.97M66.76 83.78c-1 1.15-.72 2.76-.93 4.16 3.62 2.13 6.83-1.61 9.26-3.87 1.94-2.69 5.37-3.31 8.05-4.99-.06-1.85-.41-3.85-2.2-4.79-6.22-.05-10.94 4.67-14.18 9.49m19.46-5.55c-2.91 2.14-4.42 5.55-6.56 8.36-1.63 1.82-3.78 3.06-5.49 4.8 1.45.94 3.05 2.45 4.92 1.64 5.05-1.2 8.07-5.73 12.2-8.44-.55 2.65-3.16 4.33-3.43 7.04.79.21 2.36.62 3.14.82-2.79 1.35-5.97 1.91-8.35 4.02 2.39 2.32 5.47 2.62 8.57 1.74-1.34.89-2.78 1.62-4.25 2.26 2.81 1.35 5.46 2.98 8.11 4.63 1.3-8.22-1-16.42-3.93-24.02-.69-1.89-2.8-3.88-4.93-2.85M65.13 82.8c.67-.67.67-.67 0 0m-.59-.09c-1.12.6-2.59 3.29-.89 3.89 1.19-.7 1.91-2.47 1.48-3.8l-.59-.09m273.34.86c-.44 1.34-1.2 2.73-.77 4.19.81 1.51 2.57 1.37 4.03 1.57l-1.72-2.76c3.02.75 5.83 2.24 8.96 2.55-2.09-3.73-6.79-4.34-10.5-5.55m-3.09 1.26c-2.59 3.92-3.58 8.9-2.23 13.46.28-4.57 1.34-9 2.23-13.46m-91.12 1.93c.18.69.55 2.07.73 2.77-1.08-.16-3.23-.46-4.3-.61.47.4 1.42 1.2 1.9 1.59-1.22.27-3.25.61-2.98 2.35-.71 4.39 2.13 8.36 5.81 10.43-.92-1.99-1.87-3.96-2.74-5.96 2.65 2.02 5.82 3.05 9.03 3.79-2.31-2.28-4-5.13-4.08-8.45 1.33-1.09 2.06-2.6 2.61-4.19-2.18.24-4.2-.5-5.98-1.72m13.82 9.83.76 2.6c-.01-.66-.02-1.97-.02-2.63 3.89.13 6.53-3.7 10.56-2.56l-.11 1.13c-1.7-.06-3.39-.02-5.07.11 2.98.92 6.13 1.07 9.2 1.61-4.42-3.17-8.44-7.36-13.81-8.86-4.15.18-3.12 6.12-1.51 8.6M61.27 92.28c-1.75 3.05.17 6.74 2.16 9.17 1.44 1.95 4.34.73 4.53-1.45-.04-2.71-.77-5.51-2.36-7.73-1.1-1.9-3.01-1.08-4.33.01m7.25 5.55c1.25 5.05 6.82 7.49 7.95 12.57.68 2.43 1.64 4.75 2.64 7.06-1.48-.9-2.7-2.14-3.76-3.5-.76.77-1.51 1.54-2.26 2.31.26-1.25.77-3.74 1.03-4.98-.84.69-2.53 2.09-3.37 2.78.43-1.75.92-3.49 1.36-5.24-2.41-.66-5.6-.18-6.96 2.11-1.04 4.27-.63 8.76.14 13.04 1.58 4.38 6.77 6.03 11.04 5.19-.99.8-1.99 1.58-2.99 2.36 3.8 5.69 6.93 11.79 10.7 17.51 2.61 3.93 4.53 8.25 6.54 12.51 3.09 5.14 10.19 4.36 15.35 4.07 5.52-.14 6.2-6.55 7.56-10.6 1.38-3.39-1.03-6.78-3.13-9.25.53-.35 1.07-.7 1.61-1.04 1.54 2.32 3.84 4.65 3.36 7.7-.65 4.32-2.11 8.66-4.52 12.33-3.42 3.29-8.6 2.13-12.88 2.17-5.29-.44-8.97-4.57-11.38-8.93-2.59-.22-.72 3.31-.05 4.52 4.01 4.73 9.68 8.71 16.13 8.54 3.1 4.28 7.67 7.14 11.12 11.1 3.01 3.51 7.82 4.67 10.97 8.02 2.16 2.28 4.19 4.91 7.4 5.68 2.47.46 2.36 3.58 4.16 4.9 3.81 2.75 8.43 3.97 12.73 5.74 9.47 3.84 19.08 7.39 28.96 10.02 10.39 3.05 21.31 1.39 31.94 1.32 7.34-.79 14.73-.6 22.06-1.32-2.02-1.63-4.65-2-7.07-2.71-5.27-1.45-10.64-3.17-14.97-6.61-4.19-3.34-9.05-5.84-12.83-9.68.08-.31.26-.94.35-1.25 4.03-.23 6.54 3.44 9.49 5.57 12.28 7.8 26.81 11.27 41.24 11.89.73-.19 1.42-.47 2.08-.85-2.8-1.76-6.49-2.44-8.68-4.95 2.05-1.65 5.68-1.06 8.33-2.01 3.85-4.19 5.79-10.07 5.6-15.7-2.2-11.27-9.78-20.96-19.29-27.12 1.48-2.2 4.51-.93 5.94.66 6.01 5.96 10 13.55 14.24 20.79.84 1.23 1.69 2.87 3.45 2.71 1.53-2.91 2.38-6.27 4.79-8.64-3.52 10.65-6.08 21.58-8.66 32.49 1.05-1.65 2.45-3.53 4.62-2.15-.13-2.22 1.72-2.15 3.38-2.17.42-1.97 2.08-2.09 3.8-1.91-.19-2.1 1.84-2.71 3.52-2.13-.6-2.2 1.55-3.3 3.27-2.3-.39-2.36 1.19-3.19 3.31-2.83.03-.67.08-2 .1-2.67.7.01 2.1.02 2.8.03-.12-2.1.92-3.29 3.05-3.22-.14-1.88 1.16-2.84 2.9-2.98-.01-2.06 1.4-3.09 3.39-3.06-.15-5.02-3.79-8.97-4.37-13.87-1.06-5.47.14-11.24-1.73-16.57-2.36-.46-4.53-1.51-6.65-2.61-2.08 4.39-4.34 8.69-6.76 12.9-.88 1.47-1.72 3.12-3.39 3.81.75-6.55 3.62-12.57 4.95-18.97-.8-.27-2.39-.79-3.19-1.06-5.71 2.95-10.35 8-16.93 9.12-5.03 1.97-10.08-1.39-15.2-.41-5.43 1.07-8.05 7-13.36 8.34-10.33 2.93-20.81 5.42-31.44 6.94-3.27.12-6.11 4.27-9.33 1.94-4.87-3.19-10.59-5.46-16.51-4.22.83 1.07 1.75 2.09 2.91 2.79 5.39 3.46 10.8 7.17 14.84 12.22-5.33-3.25-9.85-7.75-15.58-10.35-.39 1.41-.4 3.22-2.18 3.56-1.1-3.1-.83-6.84-3.27-9.34-1.51-1.9-3.73-3.01-6.11-3.35-.65 1.81-.85 3.71-.95 5.62-1.78-2.33-4.17-4.04-6.7-5.45-4.99-2.9-7.62-8.77-13.12-10.9-5.16-2.23-10.36-4.35-15.55-6.5-3.87-1.42-6.52-4.75-9.96-6.88-.44.74-.88 1.47-1.33 2.21-6.05-7.12-14.58-12.63-18.12-21.67-1.76-4.48 1-8.9 2.01-13.2-2.34-1.28-4.85-2.2-7.32-3.18 1 1.77 2.31 3.47 2.43 5.59-1.34-1.15-2.32-2.61-3.02-4.22-1.8-4.03-4.48-7.57-6.97-11.19-1.2-1.87-3.14-3.15-5.26-3.72-2.5-.59-5.81 2.08-4.44 4.73m267.98-2.19c-1.68 1.54 2.76 5.87 4.33 3.07-.01-1.83-2.49-4.74-4.33-3.07m6.85 13.55c.41-.12 1.22-.34 1.63-.45 1.75-4.07 2.7-8.47 3.83-12.75-1.97 4.34-3.77 8.75-5.46 13.2m-80.97-8.73c1.39 1.07 3.12 1.49 4.79 1.93-.48-.83-1.46-2.48-1.95-3.3 1.54 1.24 3.17 2.5 5.28 2.45.28-.58.83-1.76 1.11-2.35-1.09.09-3.28.28-4.37.38.68-.32 2.03-.95 2.71-1.27-1.19-.16-2.26.26-3.17 1.01-.51-.25-1.53-.74-2.04-.99-.84.65-3.05.63-2.36 2.14m-19.9 5.45c-1.7 3.87-1.06 9.05 3.45 10.58-2.11-3.18-3.04-6.84-3.45-10.58m115.48 4.56c.19.62.58 1.87.77 2.5-.72 1.95-1.55 3.86-2.51 5.71l.3.29c1.21-1.33 2.45-2.65 3.7-3.95-.73 3.31-3.25 5.56-5.33 8.02l.76.45c2.86-1.43 4.39-4.35 6.38-6.7-.56 1.48-1.13 2.95-1.73 4.41 4.69-1.9 5.59-7.18 4.09-11.51-2.14.36-4.28.66-6.43.78m-.87 16.03c.47 1.57.93 3.13 1.4 4.7 1.27-2.59 1.86-5.44 2.35-8.27-1.26 1.18-2.5 2.39-3.75 3.57m-38.69 15.24c1.35 1.64 2.49 3.43 3.52 5.29 1.21-1.51 2.38-3.05 3.5-4.63-1.49-1.69-2.85-3.57-2.64-5.97-1.43 1.8-2.9 3.57-4.38 5.31m-13.3 1.42c.46 1.14 1.01 2.25 1.45 3.4-4.56 3.85-9.61 8.32-10.42 14.59 2.4-4.26 5.17-8.35 8.9-11.58 1.37.97 2.86 1.33 4.48 1.07-.34-.61-1.01-1.85-1.35-2.47 1.16-.5 2.32-1.01 3.49-1.52.13-1.49.25-2.97.36-4.46.55-.3 1.65-.89 2.2-1.19-3.22-.42-6.39.45-9.11 2.16m12.23 2.12c1.65 3.66 2.66 7.59 4.58 11.12-.04-4.01-.66-9.01-4.58-11.12m-3.18 3.51c-2.02 1.97.58 3.74 1.31 5.6.82 1.67.23 4.18 2.3 5.03 2.05-4.02.44-8.73-3.61-10.63m5.45 18.71c-4.72 3.73-11.33 3.24-16.79 1.72.13-1.07.27-2.14.36-3.21l-1.96 1.16.28 2.5c1.05.7 3.95.53 3.35 2.38-.33 2.59-2.38-.57-2.05-1.66-1.52 1.18-1.64 2.47 0 3.62l-2.46.21c.95 1.33 1.98 2.61 3.2 3.72-.86 2.58-2.86 2.08-4.9.9.63.76 1.88 2.29 2.5 3.05-.93.72-1.88 1.43-2.82 2.12l1.28-3.52c-3.7-.22-2.86 3.34-1.52 5.39-.9.71-1.92 1.2-3.04 1.46a7.313 7.313 0 0 0 1.64-3.89c-2.09.4-2.44 2.45-3.15 4.05-.99.15-1.88.53-2.66 1.15l2.06 1.11c-1.49.38-2.98.77-4.42 1.3-.12.7-.35 2.09-.47 2.79-.65.03-1.95.1-2.6.13-.06.67-.19 1.99-.25 2.65 1.22 1.32.11 2.27-.91 3.16-1.01-.52-2.02-1.03-3.03-1.54 2.38 2.13.66 3.99-1.34 4.51.45-1.18.9-2.35 1.36-3.52-2.7-.4-2.53 3.88-5.19 3.13-.55.83-1.1 1.67-1.64 2.51.35.52 1.06 1.56 1.41 2.08-1.24.24-2.98 2.14-3.65-.12h1.76c.04-.54.11-1.62.15-2.16-2.96-.03-3.1 2.98-2.39 5.1-.76.11-2.29.32-3.05.43.57-.56 1.72-1.69 2.3-2.25-1.77-2.06-2.85.38-3.86 1.63-1.7-.53-2.66.84-3.69 1.9-1.46-.15-2.67.54-3.82 1.33.13.78.4 2.35.53 3.13-.66.05-1.96.14-2.62.18-.79.65-1.58 1.3-2.38 1.94-.94 5.23-1.43 10.55-1.57 15.86.4 1.14 1.2 3.42 1.59 4.56-2.21-1.5-3.53-3.73-4.74-6.02-2.76.38-.34 2.24.35 3.04a76.55 76.55 0 0 1 1.56 3.3c.59.22 1.76.65 2.34.87-.18.6-.53 1.82-.71 2.42.47.07 1.41.22 1.88.29-.28.58-.84 1.72-1.12 2.3 1.45.43 2.92.85 4.34 1.42.39 1.45-.69 2.37-1.6 3.27.08-1.27.08-2.53-.18-3.77-.38.37-1.13 1.11-1.51 1.48l.36 2.7c.61.18 1.81.55 2.42.73.43 1.29-.88 2.17-1.54 3.06l-.12-3.39c-.5.43-1.48 1.28-1.97 1.71 1.15 1.3 2.64 2.43 3.1 4.2 1.25 3.55 3.91 6.47 7.08 8.44.91-4.98-.5-10.05.61-15.03.78-3.25.14-7.67 3.31-9.71.39 9.05-1.03 18.19.46 27.19 1.32 5.75 3.26 11.51 6.58 16.42-1.22-5.89-2.98-11.84-2.36-17.91 1.25-7.76 7.85-13.12 10.16-20.4 1.8-13.27 1.38-26.74 2.74-40.06.06-3.2 1.21-6.4.46-9.57 1.63-1.86 3.43-3.56 5.36-5.11-.66 2.65-2.78 4.69-3.09 7.47-1.64 10.76-1.33 21.69-2.23 32.52 3.31-3.79 6.57-7.7 9.22-11.99 3.23-6.79 5.18-14.11 7.14-21.35 1-3.48 1.17-7.27 3.07-10.43 4.08-7.06 10.68-12.14 15.27-18.81 2.46-3.52 5.33-6.74 7.85-10.21.08-.69.24-2.09.33-2.78-3.49 4.21-6.11 9.18-10.36 12.72m-10.68-8.24c-.79 2.44 2.46 5.43 4.51 3.39.15-2.14-3.16-2.27-4.51-3.39m-20.93 3.9c.07 6.89.59 14.6 4.69 20.32.05-.87.16-2.63.21-3.51.66-.08 1.97-.24 2.62-.31-.21-.87-.38-1.74-.5-2.62.91-.43 1.84-.82 2.79-1.17-.24-1.32.04-2.54.83-3.65-1.75-1.4-1.49-3.47.07-4.82-2.68-2.06-4.58-4.91-5.55-8.12a96.515 96.515 0 0 0-5.16 3.88m22.69 21.56c-1.21 1.22-2.02 2.74-2.59 4.35-3.35 9.29-4.7 19.22-8.58 28.32-3.23 6.58-7.76 12.42-12.44 18.02.02 5.88-.73 11.94-3.37 17.27-1.58 3.28-4.27 5.93-5.5 9.38-.87 8.1-.22 16.36 2.22 24.15 1.79-.17 3.15-1.26 4.36-2.51-2.71-3.15-4.77-6.88-5.9-10.89 2.4 2.93 4.31 6.24 6.86 9.06 1.29-3.24 1.1-6.97 2.99-9.96.77-1.76 3.4-1.41 4.29.04 2.31 3.17 3.01 7.22 3.35 11.04.22 3.02-1.84 5.41-3.39 7.77 8.86.44 17.64 1.85 26.48 2.57-.52-2.24-1.06-4.47-1.55-6.7-2.05.39-4.13.61-6.22.57-.1-2.2 1.4-3.75 2.69-5.3-5.16.47-11.16 1.91-15.64-1.45 5.93 1.22 12.2.56 17.51-2.45-.66-6.35-2.06-12.74-.97-19.13 2.08-13.09 3.06-26.5 7.42-39.12 1.09-3.65 4.27-6.01 7.21-8.15 2.39-10.91 8-20.8 10.65-31.61-3.78-6.44-8.59-12.53-10.03-20.07-6.44 8.4-12.64 17.02-19.85 24.8m2.79-17.47c2.65-.03 4.99-2.39 4.45-5.09-1.67 1.52-3.2 3.2-4.45 5.09m-11.59 11.52c-.27-.42-.82-1.24-1.09-1.66-2.12.18-.18 3.2 1.09 1.66m-19.76 18.58c-.17 2.16 3.53 0 .94-.45l-.94.45M257 213.21c-.53 1.58.05 2.13 1.74 1.67.51-1.57-.07-2.13-1.74-1.67m-3.33 1.85c-.92 1.14 1.11 2.41 1.94 1.33 1.19-1.21-1.12-2.47-1.94-1.33m-2.33 2.09c-.57 1.61-.03 2.15 1.62 1.62.6-1.62.06-2.16-1.62-1.62m-1.86 2.9c-.47 1.41.01 1.86 1.42 1.36.48-1.45 0-1.9-1.42-1.36m2.01 12.1c.57-3.52.73-7.1.9-10.66-2.34 2.95-1.57 7.22-.9 10.66m-3.26-9.09c-.55 1.67-.03 2.21 1.58 1.64.54-1.69.01-2.24-1.58-1.64m163.24-.27c-.99 7.11-1.43 15.15-6.51 20.73-.14-3.52 1-6.92.97-10.42-.31-1.78.6-4.6-1.69-5.3-1.09 15.67-1.16 31.73-6.57 46.68-3.43 9.69-9.32 18.48-16.89 25.41 11.59 1.33 23.2 2.48 34.79 3.76.42-5.66 1.6-11.21 2.37-16.82-3.25.28-6.08 2.09-9.29 2.56.79-5.82 6.03-9.74 7.39-15.32.24-6.12-1.92-12.08-4.47-17.55-1.68 1.87-2.51 4.27-3.85 6.35-2.2 1.17-2.76-1.83-2.17-3.34 1.66-6.16 5.46-11.48 7.25-17.59.69-6.4-.31-12.84-1.33-19.15m-163.19 3.17c-1.47.5-.84 3.05.76 2.42 1.67-.4.88-3.2-.76-2.42m.07 3.35c-1.44.93-.06 3.57 1.48 2.46 1.41-.9.03-3.72-1.48-2.46m5.93 29.44c-.45 2.65-1.04 5.27-1.71 7.88.63.35 1.89 1.05 2.53 1.4-.13 1.25-.81 2.14-2.05 2.66.23-.74.67-2.22.89-2.96-3.01-.66-2 2.17-2.39 3.91-1.27.91-2.28 2.39-.3 3.26l-.45 1.02 1.23.11c-.82 4.07 1.32 8.73 5.03 10.61 5.42-.49 10.83-1.25 16.29-1.05-5.16-8.13-9.79-16.66-15.9-24.14-.53.04-1.59.13-2.12.18.35-2.07.5-4.22 1.56-6.07-2.35-1.88-2.97 1.45-2.61 3.19m36.08 13.79c-1.43 4.23-1.98 8.82-4.57 12.59 1.82-.43 3.67-.73 5.55-.71-1.79-3.89 1.94-8.43-.98-11.88m-42.48.93c.32 3.25 1.58 6.31 2 9.54-.66 1.25-2.53 1.03-3.71 1.61 3.46.14 6.34 2.04 9.23 3.73-1.61-2.74-3.65-5.3-4.57-8.38-.86-2.23-.75-5.02-2.95-6.5m12.27 14.04c1.95 1.51 4.5 1.34 6.83 1.46 3.42.03 6.98-.11 10.11-1.69-5.6-1.18-11.37-.94-16.94.23m-18.97 6.88c1.5.35 2.09-.34 1.76-2.07-1.51-.38-2.09.31-1.76 2.07m22.09-1.05c2.47 2.26 6.08 1.67 9.12 1.43-2.82-1.4-6.03-1.53-9.12-1.43m-26.95 7.55c1.64.43 2.23-.15 1.76-1.75-1.66-.41-2.25.17-1.76 1.75m32.32 1.16c1.22.88 2.47 1.71 3.75 2.53.19-.7.57-2.11.75-2.81l-2.37 1.17c.15-1.66 1.61-1.77 2.94-1.94.15.85.43 2.56.58 3.41 1.09-.84 3.13-1.56 2.71-3.32-1.07-1.26-2.68-1.82-4.04-2.66-1.68.9-3.32 1.93-4.32 3.62m-33.65 2.12c1.41.35 2.61-2.14.92-2.56-1.48-.43-2.59 2.12-.92 2.56m16.21 0c.97 1.83 2.91 2.52 4.78 3.03l-.01-1.29c1.68 1.2 2.68-.32 3.67-1.54-.42-.67-1.25-2.03-1.67-2.7-2.58-.03-5.35-.08-6.77 2.5m26.93-1.58c-1.9 2.16-1.32 6.32 2.75 4.75-.81-.82-1.64-1.61-2.49-2.38.99.06 2.96.16 3.94.21-.3 1.24-1.15 2.2-1.87 3.2 2.07-.07 3.32-1.68 4.55-3.06-.84-.85-1.68-1.69-2.52-2.52-1.47-.04-2.91-.1-4.36-.2m-44.68 2.67c-.65 1.59-.13 2.11 1.55 1.55.63-1.64.12-2.16-1.55-1.55m15.07 2.38c-.71.85-1.4 1.73-2.06 2.63.31 1.14 1.21 1.99 1.87 2.95.24-.72.74-2.16.99-2.88l2.31-.28c.09.74.28 2.22.37 2.95.47-.3 1.4-.91 1.87-1.21.12-.49.36-1.47.49-1.95-.67-.5-1.33-.99-1.99-1.47l.27-.81c-1.37.06-2.75.07-4.12.07m-14.22 4.71-1.28.65c.9.46 1.81 1.13 2.81.41-1.02-1.79-1.45-3.76-1.01-5.8-2.63.83-1.59 3.01-.52 4.74m15.9-.37c.63.67.63.67 0 0m-15.07 3.04c-.5 1.66.05 2.24 1.65 1.73.5-1.65-.05-2.23-1.65-1.73m10.69 3.74c.94.74 1.87 1.52 2.86 2.21l1.56-2.68-2.02.23v-.94c1.19.05 2.37.09 3.56.14-.71 1.17-1.42 2.34-2.06 3.56 1.74-.37 3.18-1.4 4.58-2.43-.57-1.08-1.16-2.13-1.78-3.18-1.67.03-3.33.02-4.99-.06-.58 1.04-1.16 2.08-1.71 3.15m47.82-3.96c-.33 3.91.62 7.83 2.52 11.25 4.13 8.14 11.17 14.15 17.24 20.79-2.46-10.85-14.85-15.34-18.05-25.86 2.52 2.84 4.47 6.25 7.7 8.41l.05.5.91-.16c-4.19-4.44-7.76-9.42-10.37-14.93m-33.83 11.86c-1.14 2.09-.74 4.11 1.84 4.74-.19-.57-.58-1.71-.77-2.28.6-.33 1.81-.98 2.41-1.31a8.141 8.141 0 0 1 1.59 3.94c.79-.85 1.52-1.74 2.18-2.69-.45-.87-.94-1.72-1.45-2.54-1.94.02-3.87.08-5.8.14m9.94-.03c-1.09 1.77-.87 3.75.94 4.93.13-.89.38-2.67.51-3.56.35 1.04 1.04 3.12 1.39 4.15l1.2-4.2c.14.83.43 2.48.57 3.31 2.48-.58 2.46-3 1.16-4.72-1.93.02-3.85.04-5.77.09m7.07 14.71c-8.1 1.78-16.64.83-24.25-2.43.66 2.46 3.07 3.67 5.28 4.45 7.15 2.32 15.1 2.21 22.13-.54 3.04-1.25 6.47-2.38 8.31-5.33-3.94.94-7.49 3.06-11.47 3.85m-38.41 10.21c-2.57.09-5.23.04-7.62 1.12 17.02 1.1 34.1.86 51.15 1.08 5.36.12 10.7-.4 16.05-.71 2.14-.15 4.48.21 6.34-1.13-7.07-.86-14.22-.12-21.32-.31-14.87-.21-29.74-.21-44.6-.05m47.59 3.31c-18.35-.01-36.7-.62-55.04-.96-3.14-.14-6.21-.77-9.25-1.45.7 1.23 1.82 2.21 3.28 2.38 8.98 1.38 18.08 1.03 27.13 1.33 12.96.53 25.93.68 38.9.63 7.72-.15 17.25.56 22.83-5.83-8.8 3.68-18.46 3.8-27.85 3.9m15.99 6.14c-19.34.11-38.67-.12-58.01-.19-4.07.13-8.26-.37-12.22.79 5.04.64 10.13.3 15.2.42 18.05-.11 36.08 1.39 54.13.85 5.09-.79 11.46-1.75 13.95-6.92-3.88 2.68-8.27 4.79-13.05 5.05m-80.82-1.93c-.54 1.21 1.48 2.34 2.44 1.67.54-1.23-1.46-2.5-2.44-1.67Z"/><path d="M298.12 34.23c.03-.36.08-1.07.11-1.43 1.46.01 2.27.63 2.42 1.85-.63-.1-1.9-.31-2.53-.42ZM289.07 84.95c2.47-3.02 5.88-5.79 9.92-5.99 4.54.55 8.8 2.73 12.2 5.74-4.03-1.18-8.12-2.26-12.3-2.71-5.26 1.67-8.03 7.12-12.97 9.32-.17-2.56 1.69-4.49 3.15-6.36ZM286.7 97.03c2.79-3.67 6.58-6.87 11.29-7.53-.62.51-1.87 1.53-2.49 2.04-1.2.62-2.42 1.19-3.65 1.73.29.23.59.45.9.68 2.78-2.4 6.63-2.54 10.03-3.44.05.39.13 1.18.18 1.57 1.02-.38 2.55-1.9 2.61.27 1.92-.23 3.73.57 5.57.99-1.45.53-2.98 1.03-3.1 2.83l-.59-.18c-.44 2.91-3.76 4.03-6.32 4.07-1.62-.76-3.4-.98-5.16-1.15-1-1.24-1.89-2.56-2.83-3.84-1.39 1.24-2.69 2.58-4.01 3.88.53-1.22 1.07-2.44 1.64-3.64-1.36.56-2.71 1.16-4.07 1.72m8.26-1.14c.3.53.91 1.58 1.21 2.11h3.79c.46-.64 1.38-1.91 1.84-2.54l-2.4-.24c.1.43.29 1.27.38 1.7l-3.31.3c.77-1 1.92-1.86 1.87-3.28-1.06.78-2.23 1.35-3.38 1.95m5.96 2.99c1.67.04 3.69-2.27 3.15-3.96-1.74-.03-2.48 2.66-3.15 3.96ZM289.33 113.25c.31.05.94.14 1.25.19.78 1.27 1.97 2.45 2.07 4.02-.46 1.72-2.31 2.13-3.67 2.89.66-1.41 1.35-2.8 2.01-4.21-.42-.72-1.24-2.16-1.66-2.89ZM273.84 119.86c-.16-1.81.03-3.62.72-5.31.54 1.72.16 3.92 1.72 5.19 1.47 1.04 3.3 1.28 4.98 1.86-2.8.67-5.89 2.39-8.6.54.29-.57.89-1.71 1.18-2.28ZM280.94 118.38c2.49-.47 5.44-1.6 7.56.45-2.5.87-5.16.51-7.56-.45ZM280.06 125.98c2.83.37 5.25-1.27 7.88-1.94 4.95-.19 9.93-.14 14.86.44-2.8 6.31-6.5 13.43-13.7 15.41-3.54.2-7.66 1.01-10.71-1.29-2.52-1.93-3.47-5.16-3.93-8.17-1.42-.7-2.84-1.4-4.24-2.12 3.55.17 6.28-2.84 9.84-2.33m-.01 3.01c-1.37 0-2.62.38-3.46 1.5l.59-.04c3.51 5.51 10.94 2.45 15.42-.11 1.26-1.09 2.5-2.2 3.71-3.34-5.53-.33-10.79 1.6-16.26 1.99m.65 6.15c.37 1.14 1.12 1.7 2.23 1.71 2.8-.15 5.46-1.12 8.1-2.01l.36-1.36c-3.4 1.44-7.04 1.75-10.69 1.66ZM167.28 182.6c1.13 6.57 2.21 14.68-2.26 20.29-.3-3.3.14-6.57.7-9.81.6-3.48-.51-7.35 1.56-10.48ZM153.45 189.24c.43-.24 1.29-.72 1.73-.95-.54 3.48-2.01 6.86-4.41 9.46-2.72 2.99-7.52 3.84-11.05 1.81 2.76-2.49 6.72-2.82 9.49-5.29 1.76-1.35 3.08-3.16 4.24-5.03ZM294.27 187.96c2.4.13-1.02 3.83-1.17 1.31.29-.33.88-.98 1.17-1.31ZM223.53 198.78c5.76-.34 10.83 3.9 14.39 8-5.1-.4-10.1-2.58-13.8-6.11-.15-.47-.44-1.42-.59-1.89ZM278.4 202.98c1.72.36-.24 2.63-1.38 2.22-1.8-.51.48-2.18 1.38-2.22ZM267.22 210.38c1.18.66.99 1.3-.58 1.91-1.22-.65-1.03-1.28.58-1.91ZM263.2 212.36c1.21.62 1.04 1.26-.52 1.92-1.25-.61-1.08-1.25.52-1.92ZM274.31 232.14c2.34-.86 5.46-.48 6.98 1.69 2.37 2.87 1.98 6.85 1.66 10.3-.78 3.14-2.58 6.71-6.03 7.46-3.4.34-6.46-2.25-6.92-5.57-.88-4.91-.27-10.94 4.31-13.88m.11 2.13c-3.04 2.52-4.03 6.98-3.12 10.72.62 1.74 1.52 4.07 3.7 4.19 2.32.29 3.87-1.81 4.71-3.66 1.35-3.31 1.51-7.49-.78-10.42-.94-1.53-3.06-1.55-4.51-.83ZM255.24 239.03c1.36-.59 2.51 1.57 1.68 2.61-1.17.31-2.17-1.67-1.68-2.61ZM255.04 263.08c1.51.05 1.28 2.62.04 2.99-1.28-.2-.91-2.47-.04-2.99ZM252.75 274.32c-1.79-.2-.23-2.56.93-2.17-.23.54-.7 1.63-.93 2.17ZM254.07 305.71c-.74-1.39 1.59-2.21 2.51-1.41.55 1.21-1.66 2.13-2.51 1.41ZM257.05 316.15c-1.27-5.78 4.66-10.55 10.05-10.33 4.2-.39 8.66 1.67 10.61 5.51.93 2.21.41 4.68.62 7-.53-.24-1.58-.71-2.11-.95.32.24.97.73 1.3.97-1.78 2.62-4.59 4.16-7.6 4.91-5.18.67-11.47-1.61-12.87-7.11ZM243.26 311.22c.26.3.78.88 1.04 1.18-.9 1.05-1.59 1-2.08-.13.26-.26.78-.79 1.04-1.05ZM280.57 331.27c.34.5.34.5 0 0ZM278.67 332.26c.55.52.55.52 0 0ZM274.27 333.78c.25-1.28 1.02-1.49 2.32-.62-.34 1.31-1.11 1.52-2.32.62ZM262.98 335.08a94.39 94.39 0 0 0-1.42-1.41c3.33.03 6.65-.04 9.97.01.84.21 1.43.72 1.77 1.54-3.44.06-6.89.1-10.32-.14Z"/></g></svg>